<svg id="Layer_1" data-name="Layer 1" xmlns="http://www.w3.org/2000/svg" viewBox="0 0 800 161.87"><defs><style>.cls-1{fill:#d991a4;}.cls-2{fill:#a3a5b2;}</style></defs><path class="cls-1" d="M141.89,62.74h73.24v-25H116.91c0,8.49,0,29.56,0,37.77a29,29,0,0,0,28.72,25h76.21v-25h-80Z"/><rect class="cls-1" x="116.9" width="104.94" height="24.97"/><rect class="cls-1" x="36.72" y="37.78" width="31.52" height="62.74"/><rect class="cls-1" width="104.94" height="24.97"/><path class="cls-1" d="M317.13,75.53h-45V37.77H240.63v62.74h71.58L320.33,74A4,4,0,0,1,317.13,75.53Z"/><path class="cls-1" d="M339.66,10.76C329.82-4.7,299.86,1,284.63,0H234V25c20.37,0,62.63,0,83.17,0a4,4,0,0,1,4,4v42.2Z"/><polygon class="cls-2" points="453.94 0.01 356.14 0.01 348.01 26.48 445.81 26.48 453.94 0.01"/><polygon class="cls-2" points="344.57 37.82 325.44 100.51 357.19 100.51 368.63 63.35 434.68 63.35 442.41 37.82 344.57 37.82"/><path class="cls-2" d="M569.64,0C561.4.68,491.7-1.8,485.69,1.88,474.08,5.64,465,15,460.86,26.49H561.52Z"/><polygon class="cls-2" points="487.53 43.11 489.19 37.85 457.59 37.85 438.29 100.51 469.89 100.51 479.52 68.92 516.83 68.92 507.2 100.51 538.95 100.51 556.59 43.11 487.53 43.11"/><path class="cls-2" d="M604.78,1.74C590.88,4.51,581.66,13.55,577,26.49H677.23L685.35,0C672,.55,616.59-1.51,604.78,1.74Z"/><path class="cls-2" d="M665,46.2c-8.27-15.48-76.66-5.86-91.1-8.38C569.22,72,613.65,61.9,634.34,63.35q-3.47,10.83-14,10.83H562.12L554,100.51c23-2.06,76.32,6.6,94.94-9.78C660.62,81,672.22,61.19,665,46.2Z"/><polygon class="cls-2" points="700.4 0.01 692.27 26.48 790.52 26.48 798.65 0.01 700.4 0.01"/><polygon class="cls-2" points="706.29 100.51 738.02 100.51 757.33 37.82 725.61 37.82 706.29 100.51"/><path class="cls-2" d="M8.59,134.79H.79l1.5-4.6H23.53l-1.5,4.6H14.26L7.88,154.56H2.24Z"/><path class="cls-2" d="M26.56,130.19h5.67l-7.85,24.37H18.7Z"/><path class="cls-2" d="M60.32,130.19l-7.85,24.37H47.84l-7.22-15.24-4.93,15.24H30.12L38,130.19h4.67l7.22,15.29,4.89-15.29Z"/><path class="cls-2" d="M88.45,130.19,80.6,154.56H75l3.19-9.92h-11l-3.2,9.92H58.25l7.85-24.37h5.67l-3.08,9.58h11l3.09-9.58Z"/><path class="cls-2" d="M116.77,142h5.15l-3.24,10c-12,8.28-27.19-1.41-17.62-15.11,4.67-7.24,18.33-10.49,23.92-2.89l-4.44,3.28c-12.08-12.53-26.88,18-6.09,12Z"/><path class="cls-2" d="M129.48,153.66c-13.67-9.92,6-29.9,18.63-22.56C161.77,141,142.12,161,129.48,153.66Zm12.1-4.77c9-5.18,5.42-19-5.58-13C127,141,130.58,154.82,141.58,148.89Zm-10.37,12.39c-1.79-2.21,2-5.59,4.06-3.58C137.16,160,133.24,163.3,131.21,161.28Z"/><path class="cls-2" d="M182.64,130.19l-7.85,24.37h-4.63l-7.22-15.24L158,154.56h-5.57l7.86-24.37H165l7.22,15.29,4.89-15.29Z"/><path class="cls-2" d="M198.27,130.19c4,.23,13.06-.74,16.47,1.24,9,4.66,3.35,18.24-4.28,21.37-4.61,2.7-14.8,1.52-20,1.76Zm4.8,19.74c8.79,1.39,16.17-15.14,4.21-15.11h-4.84l-4.87,15.11Z"/><path class="cls-2" d="M225.59,153.66c-13.67-9.92,6-29.9,18.63-22.56C257.88,141,238.23,161,225.59,153.66Zm12.1-4.77c9-5.17,5.42-19-5.58-13C223.13,141,226.69,154.82,237.69,148.89Z"/><path class="cls-2" d="M266.18,149.34H254.83l-3.8,5.22h-6l18.75-24.37h5.57l3,24.37h-5.64Zm-.42-4.28-.9-9.4-6.89,9.4Z"/><path class="cls-2" d="M305.07,130.19l-7.85,24.37h-4.63l-7.22-15.24-4.93,15.24h-5.57l7.85-24.37h4.67l7.21,15.29,4.9-15.29Z"/><path class="cls-2" d="M333.2,130.19l-7.85,24.37h-5.64l3.19-9.92h-11l-3.2,9.92H303l7.85-24.37h5.67l-3.08,9.58h11l3.09-9.58Z"/><path class="cls-2" d="M371.18,130.19l-7.86,24.37h-4.63l-7.22-15.24-4.92,15.24H341l7.85-24.37h4.66l7.22,15.29,4.9-15.29Z"/><path class="cls-2" d="M389.64,142h5.16l-3.25,10c-12,8.28-27.18-1.41-17.61-15.11,4.67-7.24,18.33-10.49,23.92-2.89l-4.44,3.28c-12.08-12.53-26.88,18-6.1,12Z"/><path class="cls-2" d="M426.14,130.19l-7.85,24.37h-5.64l3.2-9.92h-11l-3.2,9.92h-5.67l7.85-24.37h5.68l-3.09,9.58h11l3.08-9.58Z"/><path class="cls-2" d="M431.92,130.19h5.67l-7.85,24.37h-5.67Z"/><path class="cls-2" d="M447.48,134.72,445.79,140H457.1l-1.4,4.39H444.35l-1.8,5.64h13.29l-1.49,4.52H435.48l7.86-24.37h18.41l-1.49,4.53Zm-6.22,26.56c-1.79-2.21,2.06-5.59,4.06-3.58C447.21,160,443.29,163.3,441.26,161.28Zm15.06-33.07L454,125.6l-3.7,2.61h-4.07l5.9-5h4.77l3.32,5Z"/><path class="cls-2" d="M483.35,132.2c4.41,4.32.47,12.51-4.83,14.42-3,1.55-8.34,1.2-11.86,1.22l-2.14,6.72h-5.68l7.85-24.37C470.78,130.46,480.48,129.13,483.35,132.2Zm-6,9.76c5.57-6.42-.75-7.77-6.53-7.17l-2.74,8.46C470.71,143.17,475.48,143.72,477.4,142Z"/><path class="cls-2" d="M505.57,134.79h-7.8l1.51-4.6h21.23l-1.5,4.6h-7.76l-6.39,19.77h-5.64Z"/><path class="cls-2" d="M539.51,143.6A11.54,11.54,0,0,1,534,147l3.32,7.52h-5.95l-3-6.82h-4.81l-2.19,6.82h-5.67l7.85-24.37C533.48,129.59,548.61,129.73,539.51,143.6ZM534.3,142c5.64-6.44-.83-7.77-6.59-7.17L525,143.25C527.57,143.17,532.35,143.73,534.3,142Z"/><path class="cls-2" d="M547.68,153.66c-13.66-9.93,6-29.9,18.63-22.56C580,141,560.32,161,547.68,153.66Zm12.11-4.77c9-5.17,5.42-19-5.58-13C545.22,141,548.79,154.82,559.79,148.89Z"/><path class="cls-2" d="M600.85,130.19,593,154.56h-4.63l-7.22-15.24-4.93,15.24h-5.57l7.85-24.37h4.67l7.22,15.29,4.89-15.29Z"/><path class="cls-2" d="M619.32,142h5.15l-3.24,10c-12,8.28-27.19-1.41-17.61-15.11,4.66-7.24,18.33-10.49,23.91-2.89l-4.43,3.28c-12.08-12.53-26.88,18-6.1,12Z"/><path class="cls-2" d="M646.87,134.79h-7.8l1.5-4.6H661.8l-1.5,4.6h-7.76l-6.39,19.77h-5.63Z"/><path class="cls-2" d="M673.74,149.34H662.39l-3.81,5.22h-6l18.75-24.37h5.57l3,24.37h-5.64Zm-.42-4.28-.91-9.4-6.89,9.4Zm4.43-16.85-2.44-2-3.55,2h-4.07l5.7-4h4.7l3.59,4Zm-.54-7.55h5.57l2.48,4.21h-3.94Z"/><path class="cls-2" d="M717.71,130.19l-7.82,24.37H704.6l4.63-14.48L698.48,152H696l-3.54-12.05-4.71,14.62h-5.29l7.85-24.37h4.59l4.24,15.18,13.76-15.18Z"/><path class="cls-2" d="M736.92,134.79h-7.8l1.5-4.6h21.24l-1.5,4.6h-7.77l-6.38,19.77h-5.64Z"/><path class="cls-2" d="M763.79,149.34H752.44l-3.8,5.22h-6l18.75-24.37h5.57l3,24.37H764.3Zm-.42-4.28-.9-9.4-6.89,9.4Z"/><path class="cls-2" d="M785.38,146.1l-2.7,8.46H777l2.77-8.7-4.35-15.67h5.64l3,10.87,10.07-10.87H800Z"/></svg>
