<svg xmlns="http://www.w3.org/2000/svg" width="139.658" height="63.5" viewBox="0 0 139.658 63.5">
    <defs>
        <style>
            .prefix__cls-1,.prefix__cls-2{fill:#efefef}.prefix__cls-2{fill-rule:evenodd}
        </style>
    </defs>
    <g id="prefix__Group_185" data-name="Group 185" transform="translate(-83 -3886.539)">
        <g id="prefix__Group_171" data-name="Group 171">
            <g id="prefix__Group_170" data-name="Group 170">
                <path id="prefix__Path_112" d="M219.178 3892.943a3.481 3.481 0 1 0 3.48 3.483 3.482 3.482 0 0 0-3.48-3.483zm0 6.415a2.931 2.931 0 1 1 2.931-2.932 2.931 2.931 0 0 1-2.931 2.932z" class="prefix__cls-1" data-name="Path 112"/>
            </g>
        </g>
        <g id="prefix__Group_172" data-name="Group 172">
            <path id="prefix__Path_113" d="M83 3950.039v-6.981h4.575a1.161 1.161 0 0 1 .914.325 1.553 1.553 0 0 1 .279 1.031v.853a1.256 1.256 0 0 1-.235.8 1.037 1.037 0 0 1-.677.368 1.088 1.088 0 0 1 .71.434 1.527 1.527 0 0 1 .244.906v.89a1.3 1.3 0 0 1-.388 1.036 1.775 1.775 0 0 1-1.179.334zm4.057-5.846h-2.833v1.667h2.833a.659.659 0 0 0 .444-.111.518.518 0 0 0 .125-.39v-.66a.528.528 0 0 0-.125-.389.655.655 0 0 0-.444-.117zm0 2.817h-2.833v1.776h2.833a.631.631 0 0 0 .476-.143.746.746 0 0 0 .123-.487v-.532a.722.722 0 0 0-.123-.479.621.621 0 0 0-.476-.135z" class="prefix__cls-1" data-name="Path 113"/>
            <path id="prefix__Path_114" d="M92.452 3943.058v5.664h3.538v-5.664h1.235v5.331a2.2 2.2 0 0 1-.273 1.3 1.276 1.276 0 0 1-1.048.347h-3.372a1.28 1.28 0 0 1-1.048-.347 2.252 2.252 0 0 1-.27-1.3v-5.331z" class="prefix__cls-1" data-name="Path 114"/>
            <path id="prefix__Path_115" d="M99.959 3950.039v-6.981h1.24v6.981z" class="prefix__cls-1" data-name="Path 115"/>
            <path id="prefix__Path_116" d="M103.929 3950.039v-6.981h1.241v5.664h4v1.317z" class="prefix__cls-1" data-name="Path 116"/>
            <path id="prefix__Path_117" d="M110.987 3950.039v-6.981h3.434a2.845 2.845 0 0 1 2.258.9 3.743 3.743 0 0 1 .791 2.55 4.776 4.776 0 0 1-.308 1.759 2.871 2.871 0 0 1-.871 1.229 2.167 2.167 0 0 1-.864.414 5.714 5.714 0 0 1-1.327.129zm1.244-1.317h1.6a2.564 2.564 0 0 0 1.816-.517 2.345 2.345 0 0 0 .537-1.722 2.55 2.55 0 0 0-.444-1.624 1.587 1.587 0 0 0-1.314-.549h-2.2z" class="prefix__cls-1" data-name="Path 117"/>
            <path id="prefix__Path_118" d="M119.749 3950.039v-6.981h1.239v6.981z" class="prefix__cls-1" data-name="Path 118"/>
            <path id="prefix__Path_119" d="M123.706 3950.039v-6.981h.845l3.759 4.116c.124.137.236.264.332.391a2.856 2.856 0 0 1 .273.369c-.02-.394-.037-.667-.042-.835s-.016-.291-.016-.376v-3.665h1.118v6.981h-.845l-3.919-4.316c-.092-.1-.174-.2-.248-.3a2.542 2.542 0 0 1-.2-.265c.02.217.03.421.038.614s.009.35.009.494v3.771z" class="prefix__cls-1" data-name="Path 119"/>
            <path id="prefix__Path_120" d="M137.7 3944.31h-3.876v4.412h3.876v-1.548h-2.029v-1.193h3.239v2.408a2.195 2.195 0 0 1-.278 1.3 1.27 1.27 0 0 1-1.05.347h-3.678a1.279 1.279 0 0 1-1.05-.347 2.269 2.269 0 0 1-.27-1.3v-3.679a2.266 2.266 0 0 1 .27-1.3 1.277 1.277 0 0 1 1.05-.351h3.678a1.319 1.319 0 0 1 1.05.343 2.046 2.046 0 0 1 .278 1.244v.158l-1.21.285z" class="prefix__cls-1" data-name="Path 120"/>
            <path id="prefix__Path_121" d="M144.519 3950.039l3.019-6.981h1.2l3.062 6.981h-1.4l-.641-1.525h-3.386l-.617 1.525zm2.391-2.786h2.335l-1.151-2.839z" class="prefix__cls-1" data-name="Path 121"/>
            <path id="prefix__Path_122" d="M162.133 3944.279h-3.49v1.5h3.334a1.3 1.3 0 0 1 1.056.353 2.278 2.278 0 0 1 .268 1.3v.956a2.257 2.257 0 0 1-.268 1.3 1.281 1.281 0 0 1-1.056.353h-3.3a1.29 1.29 0 0 1-1.059-.353 2.214 2.214 0 0 1-.27-1.3v-.189l1.094-.3v.825h3.77v-1.592h-3.327a1.3 1.3 0 0 1-1.05-.345 2.267 2.267 0 0 1-.27-1.3v-.774a2.266 2.266 0 0 1 .27-1.3 1.276 1.276 0 0 1 1.05-.351h3.03a1.33 1.33 0 0 1 1.04.341 1.886 1.886 0 0 1 .281 1.2v.143l-1.1.338z" class="prefix__cls-1" data-name="Path 122"/>
            <path id="prefix__Path_123" d="M164.679 3950.039l3.012-6.981h1.2l3.064 6.981h-1.4l-.643-1.525h-3.375l-.624 1.525zm2.382-2.786h2.34l-1.147-2.839z" class="prefix__cls-1" data-name="Path 123"/>
            <path id="prefix__Path_124" d="M173.668 3950.039v-6.981h5.392v1.221h-4.151v1.841h2.245v1.27h-2.245v2.649z" class="prefix__cls-1" data-name="Path 124"/>
            <path id="prefix__Path_125" d="M180.6 3950.039v-6.981h5.466v1.189h-4.224v1.556h2.462V3947h-2.462v1.727h4.27v1.317z" class="prefix__cls-1" data-name="Path 125"/>
            <path id="prefix__Path_126" d="M192.412 3950.039v-6.981h1.24v5.664h4v1.317z" class="prefix__cls-1" data-name="Path 126"/>
            <path id="prefix__Path_127" d="M199.473 3950.039v-6.981h1.241v6.981z" class="prefix__cls-1" data-name="Path 127"/>
            <path id="prefix__Path_128" d="M203.444 3950.039v-6.981h5.4v1.221h-4.165v1.841h2.252v1.27h-2.252v2.649z" class="prefix__cls-1" data-name="Path 128"/>
            <path id="prefix__Path_129" d="M210.374 3950.039v-6.981h5.465v1.189h-4.223v1.556h2.464V3947h-2.464v1.727h4.284v1.317z" class="prefix__cls-1" data-name="Path 129"/>
        </g>
        <g id="prefix__LOGO">
            <g id="prefix__Group_173" data-name="Group 173">
                <path id="prefix__Path_130" d="M143.222 3915.722h7.012v5.142l-7.012.037z" class="prefix__cls-2" data-name="Path 130"/>
            </g>
            <g id="prefix__Group_174" data-name="Group 174">
                <path id="prefix__Path_131" d="M91.428 3915.79h7.005v5.142l-7.005.032z" class="prefix__cls-2" data-name="Path 131"/>
            </g>
            <g id="prefix__Group_175" data-name="Group 175">
                <path id="prefix__Path_132" d="M195.635 3904.5c.2-.158.751-.716 2.882-.716 3.885 0 9.989-.007 13.863-.012 2.167-.006 2.718.611 3.018.951a2.638 2.638 0 0 1 .613 2.043v1.155l-15.3-.045.058 2.684 11.621.063c2.092.013 2.6.453 2.83.631.208.177.8.668.818 2.321.024 3.046-.03 7.333-.03 7.333l-21.127.044s.018-.7 0-1.52a2.448 2.448 0 0 1 .667-1.987c.232-.226.835-.789 2.943-.779 4.524.026 11.64.062 11.64.062v-2.66h-11.645c-2.079 0-2.406-.418-2.609-.56a2.7 2.7 0 0 1-.975-2.439c0-1.376.013-3.006.016-4.379.01-1.627.511-2.019.717-2.19z" class="prefix__cls-2" data-name="Path 132"/>
            </g>
            <g id="prefix__Group_176" data-name="Group 176">
                <path id="prefix__Path_133" d="M192.646 3903.728l-2.806.011a3.2 3.2 0 0 0-2.24.692c-.13.111-.767.456-.771 2.05-.04 3.766-.091 10.129-.091 10.129l-11.8.075.044-12.928h-2.363a4.522 4.522 0 0 0-2.62.581c-.321.186-.937.584-.937 2.291v14.272l23.572.03z" class="prefix__cls-2" data-name="Path 133"/>
            </g>
            <g id="prefix__Group_177" data-name="Group 177">
                <path id="prefix__Path_134" d="M166.753 3920.856h-5.931v-31.366c0-1.829.624-2.1.8-2.262a4.771 4.771 0 0 1 2.778-.689h2.351z" class="prefix__cls-2" data-name="Path 134"/>
            </g>
            <g id="prefix__Group_178" data-name="Group 178">
                <path id="prefix__Path_135" d="M132.619 3920.9l-5.873-.064.016-12.794-11.816-.069.046 12.927h-5.924v-31.37c0-1.828.622-2.079.8-2.254a4.685 4.685 0 0 1 2.781-.693h2.344l-.046 17.174 17.692-.029z" class="prefix__cls-2" data-name="Path 135"/>
            </g>
            <g id="prefix__Group_179" data-name="Group 179">
                <path id="prefix__Path_136" d="M157.672 3904.378a4.273 4.273 0 0 0-2.778-.689c-3.527 0-14.269.008-15.524 0s-2.931 0-3.629.556-.872 1.217-.889 2.513.044 31.231.044 31.231l2.228.013a5.158 5.158 0 0 0 2.593-.444c.24-.14 1.018-.644 1.024-2.451l.044-27.106 11.765-.016-.009 12.9 5.927-.035v-14.261a2.5 2.5 0 0 0-.796-2.211z" class="prefix__cls-2" data-name="Path 136"/>
            </g>
            <g id="prefix__Group_180" data-name="Group 180">
                <path id="prefix__Path_137" d="M83.944 3904.463a4.321 4.321 0 0 1 2.778-.692c3.521 0 14.274.018 15.527 0s2.923.006 3.617.567.872 1.21.893 2.507c.02 1.052-.021 21.034-.044 28.477a2.4 2.4 0 0 1-1.079 2.335 5.322 5.322 0 0 1-2.58.438c-1.179.011-2.172.017-2.172.017l-.048-30.034H89.064l.012 12.888-5.932-.033v-14.257a2.5 2.5 0 0 1 .8-2.213z" class="prefix__cls-2" data-name="Path 137"/>
            </g>
            <g id="prefix__Group_181" data-name="Group 181">
                <path id="prefix__Path_138" d="M98.458 3938.022s-1.154-6.418-5.153-10.184-10.18-4.979-10.18-4.979h15.333z" class="prefix__cls-2" data-name="Path 138"/>
            </g>
            <g id="prefix__Group_182" data-name="Group 182">
                <path id="prefix__Path_139" d="M117.112 3886.754s1.734 6.408 5.74 10.178a22.949 22.949 0 0 0 9.767 4.974h-15.507z" class="prefix__cls-2" data-name="Path 139"/>
            </g>
        </g>
        <g id="prefix__Group_184" data-name="Group 184">
            <g id="prefix__Group_183" data-name="Group 183">
                <path id="prefix__Path_140" d="M220.852 3898.476h-.752l-1.451-1.92h-.163v1.92h-.616v-4.109h1.1a2.127 2.127 0 0 1 1.21.281 1.029 1.029 0 0 1 .075 1.588 1.518 1.518 0 0 1-.943.294zm-.864-2.975a.521.521 0 0 0-.271-.5 1.524 1.524 0 0 0-.816-.162h-.414v1.285h.414a1.649 1.649 0 0 0 .816-.148.5.5 0 0 0 .271-.476z" class="prefix__cls-1" data-name="Path 140"/>
            </g>
        </g>
    </g>
</svg>
