<?xml version="1.0" encoding="utf-8"?>
<!-- Generator: Adobe Illustrator 27.1.0, SVG Export Plug-In . SVG Version: 6.00 Build 0)  -->
<svg version="1.1" id="Layer_1" xmlns="http://www.w3.org/2000/svg" xmlns:xlink="http://www.w3.org/1999/xlink" x="0px" y="0px"
	 viewBox="0 0 30 30" style="enable-background:new 0 0 30 30;" xml:space="preserve">
<style type="text/css">
	.st0{fill:#231F20;}
	.st1{fill:#FFFFFF;}
</style>
<g>
	<g>
		<path d="M25.9,0.2c0.2,0.2,0.2,0.3,0.2,0.6c0,9.5,0,19,0,28.5c0,0.5-0.1,0.6-0.6,0.6c-6.7,0-13.4,0-20.1,0c-1,0-1.7-0.6-1.7-1.7
			c0-8.8,0-17.5,0-26.3C3.8,1,4.2,0.5,5,0.2c0,0,0,0,0.1-0.1C12,0.2,19,0.2,25.9,0.2z M8.4,1c0,9.3,0,18.7,0,28c5.7,0,11.3,0,17,0
			c0-9.3,0-18.6,0-28C19.7,1,14,1,8.4,1z M7.5,1C7.5,1,7.5,1,7.5,1C6.9,1,6.3,1,5.7,1c-0.8,0-1,0.3-1,1c0,8.7,0,17.3,0,26
			c0,0.1,0,0.2,0,0.3c0,0.4,0.3,0.7,0.7,0.7c0.7,0,1.5,0,2.2,0C7.5,19.7,7.5,10.3,7.5,1z"/>
		<path class="st0" d="M15.2,30c-3.2,0-6.4,0-9.7,0c-1.1,0-1.9-0.7-1.9-1.9c0-8.8,0-17.5,0-26.3C3.6,1,4,0.4,4.9,0.1c0,0,0,0,0,0
			L5,0h21l0.1,0c0.3,0.2,0.3,0.5,0.3,0.7c0,8.2,0,16.4,0,24.5v4c0,0.6-0.2,0.8-0.8,0.8C22.1,30,18.6,30,15.2,30z M5.1,0.4
			C5.1,0.4,5.1,0.4,5.1,0.4C4.3,0.7,4,1.1,4,1.9c0,8.8,0,17.5,0,26.3c0,0.9,0.6,1.5,1.5,1.5c6.7,0,13.4,0,20.1,0
			c0.4,0,0.4,0,0.4-0.4v-4c0-8,0-16.3,0-24.5c0-0.2,0-0.3-0.1-0.4H5.1z M6.2,29.2c-0.3,0-0.6,0-0.9,0c-0.5,0-0.8-0.4-0.9-0.9
			c0-0.1,0-0.2,0-0.2l0-0.1l0-26c0-0.5,0.1-0.7,0.3-0.9c0.2-0.2,0.5-0.3,0.9-0.3c0,0,0,0,0,0c0.6,0,1.2,0,1.8,0c0.1,0,0.1,0,0.1,0
			c0,0,0,0,0,0l0.1,0.1v28.3H7.5c-0.2,0-0.4,0-0.7,0C6.7,29.2,6.4,29.2,6.2,29.2z M5.7,1.2C5.3,1.2,5.1,1.2,5,1.4
			C4.9,1.5,4.8,1.7,4.8,2l0,26l0,0.1c0,0.1,0,0.1,0,0.2c0,0.2,0.2,0.5,0.5,0.5c0.5,0,1,0,1.5,0c0.2,0,0.3,0,0.5,0V1.2
			C6.8,1.2,6.2,1.2,5.7,1.2C5.7,1.2,5.7,1.2,5.7,1.2z M25.5,29.2H8.2V0.8h17.4V29.2z M8.6,28.8h16.6V1.2H8.6V28.8z"/>
	</g>
	<g>
		<path class="st1" d="M8.4,1c5.7,0,11.3,0,17,0c0,9.3,0,18.6,0,28c-5.6,0-11.3,0-17,0C8.4,19.7,8.4,10.4,8.4,1z"/>
		<path class="st0" d="M25.5,29.2H8.2V0.8h17.4V29.2z M8.6,28.8h16.6V1.2H8.6V28.8z"/>
	</g>
	<g>
		<path class="st1" d="M7.5,1c0,9.3,0,18.6,0,28c-0.7,0-1.5,0-2.2,0c-0.4,0-0.6-0.3-0.7-0.7c0-0.1,0-0.2,0-0.3c0-8.7,0-17.3,0-26
			c0-0.8,0.3-1,1-1C6.3,1,6.9,1,7.5,1C7.5,1,7.5,1,7.5,1z"/>
		<path class="st0" d="M6.2,29.2c-0.3,0-0.6,0-0.9,0c-0.5,0-0.8-0.4-0.9-0.9c0-0.1,0-0.2,0-0.2l0-0.1l0-26c0-0.5,0.1-0.7,0.3-0.9
			c0.2-0.2,0.5-0.3,0.9-0.3c0,0,0,0,0,0c0.6,0,1.2,0,1.8,0c0.1,0,0.1,0,0.1,0c0,0,0,0,0,0l0.1,0.1v28.3H7.5c-0.2,0-0.4,0-0.7,0
			C6.7,29.2,6.4,29.2,6.2,29.2z M5.7,1.2C5.3,1.2,5.1,1.2,5,1.4C4.9,1.5,4.8,1.7,4.8,2l0,26l0,0.1c0,0.1,0,0.1,0,0.2
			c0,0.2,0.2,0.5,0.5,0.5c0.5,0,1,0,1.5,0c0.2,0,0.3,0,0.5,0V1.2C6.8,1.2,6.2,1.2,5.7,1.2C5.7,1.2,5.7,1.2,5.7,1.2z"/>
	</g>
	<g>
		<g>
			<path d="M16.9,5.3c2.1,0,4.3,0,6.4,0c0.5,0,0.6,0.1,0.6,0.6c0,2.6,0,5.1,0,7.7c0,0.5-0.1,0.6-0.6,0.6c-4.3,0-8.6,0-12.8,0
				c-0.5,0-0.6-0.1-0.6-0.6c0-2.6,0-5.2,0-7.7c0-0.4,0.1-0.6,0.6-0.6C12.6,5.3,14.7,5.3,16.9,5.3z M10.7,11.1
				c0.1-0.1,0.2-0.1,0.3-0.2c1-0.7,1.9-1.3,2.9-2c0.2-0.2,0.4-0.2,0.7-0.1c2.3,0.9,4.6,1.8,6.9,2.7c0.6,0.2,1.1,0.4,1.7,0.7
				c0-2.1,0-4.1,0-6.2c-4.1,0-8.2,0-12.4,0C10.7,7.8,10.7,9.4,10.7,11.1z M10.7,13.3c4.1,0,8.3,0,12.4,0c0,0,0,0,0-0.1
				c-0.1-0.1-0.1-0.1-0.2-0.2c-2.8-1.1-5.6-2.2-8.4-3.3c-0.1,0-0.2,0-0.3,0c-1.1,0.7-2.2,1.5-3.3,2.3c-0.1,0-0.1,0.1-0.1,0.2
				C10.7,12.6,10.7,13,10.7,13.3z"/>
			<path class="st0" d="M16.8,14.4c-2.1,0-4.3,0-6.4,0c-0.6,0-0.8-0.2-0.8-0.8c0-2.6,0-5.2,0-7.7c0-0.6,0.2-0.8,0.8-0.8
				c1.6,0,3.1,0,4.7,0l1.8,0l1.7,0c1.6,0,3.1,0,4.7,0c0.6,0,0.8,0.2,0.8,0.8c0,2.6,0,5.1,0,7.7c0,0.6-0.2,0.8-0.8,0.8
				C21.1,14.4,19,14.4,16.8,14.4z M13.5,5.5c-1,0-2,0-3.1,0c-0.3,0-0.4,0-0.4,0.4c0,2.6,0,5.2,0,7.7c0,0.3,0,0.4,0.4,0.4
				c4.3,0,8.6,0,12.8,0c0.3,0,0.4,0,0.4-0.4c0-2.6,0-5.1,0-7.7c0-0.4,0-0.4-0.4-0.4c-1.6,0-3.1,0-4.7,0l-1.7,0l-1.8,0
				C14.5,5.5,14,5.5,13.5,5.5z M23.1,13.5H10.5v-0.2c0-0.1,0-0.2,0-0.3c0-0.3,0-0.5,0-0.8c0-0.2,0.1-0.3,0.2-0.4
				C11.9,11,13,10.3,14,9.6c0.1-0.1,0.3-0.1,0.5,0c2.5,1,5.1,2,8.4,3.3c0.1,0,0.1,0.1,0.2,0.1c0,0,0,0,0.1,0l0.1,0.1L23.1,13.5z
				 M10.9,13.1h11.6c-3.1-1.2-5.7-2.3-8.1-3.2c0,0-0.1,0-0.1,0c-1,0.7-2.1,1.4-3.3,2.3c0,0,0,0.1-0.1,0.1c0,0.2,0,0.5,0,0.8
				C10.9,13.1,10.9,13.1,10.9,13.1z M23.2,12.6l-0.8-0.3c-0.4-0.2-0.8-0.3-1.1-0.4l-1.4-0.5c-1.8-0.7-3.7-1.4-5.5-2.2
				C14.2,9,14.1,9,13.9,9.1c-0.7,0.5-1.5,1-2.2,1.5c-0.2,0.2-0.5,0.3-0.7,0.5c0,0-0.1,0.1-0.2,0.1c0,0-0.1,0-0.1,0.1l-0.3,0.2V5.9
				h12.7V12.6z M14.2,8.6c0.1,0,0.2,0,0.4,0.1c1.8,0.7,3.7,1.5,5.5,2.2l1.4,0.5c0.4,0.1,0.8,0.3,1.1,0.4l0.3,0.1V6.3h-12v4.5
				c0.2-0.2,0.5-0.3,0.7-0.5c0.7-0.5,1.4-1,2.2-1.5C13.9,8.7,14,8.6,14.2,8.6z"/>
		</g>
		<g>
			<path d="M16.8,16.5c-2.1,0-4.2,0-6.3,0c-0.1,0-0.2,0-0.3,0c-0.2,0-0.3-0.2-0.3-0.4c0-0.2,0.1-0.3,0.3-0.4c0.1,0,0.2,0,0.3,0
				c4.3,0,8.5,0,12.8,0c0.1,0,0.2,0,0.3,0c0.1,0.1,0.3,0.2,0.3,0.4c0,0.1-0.1,0.3-0.3,0.4c-0.1,0.1-0.2,0-0.4,0
				C21.1,16.5,19,16.5,16.8,16.5z"/>
			<path class="st0" d="M23.3,16.7C23.3,16.7,23.3,16.7,23.3,16.7c-0.1,0-0.1,0-0.2,0c-1.7,0-3.5,0-5.2,0l-1.1,0l-1.1,0
				c-1.7,0-3.5,0-5.2,0c-0.1,0-0.3,0-0.4,0c-0.3-0.1-0.5-0.3-0.5-0.6c0-0.3,0.2-0.5,0.5-0.6c0.1,0,0.2,0,0.3,0c4.3,0,8.5,0,12.8,0
				c0,0,0,0,0,0c0,0,0,0,0.1,0c0.1,0,0.3,0,0.4,0.1c0.2,0.2,0.3,0.4,0.4,0.5c0,0.3-0.3,0.5-0.3,0.5C23.6,16.7,23.5,16.7,23.3,16.7z
				 M23.2,16.3C23.2,16.3,23.2,16.3,23.2,16.3c0.1,0,0.2,0,0.3,0c0.1-0.1,0.2-0.2,0.2-0.2l0,0c0,0,0-0.1-0.2-0.2c0,0-0.1,0-0.1,0
				c0,0,0,0-0.1,0c0,0,0,0,0,0c-4.3,0-8.5,0-12.8,0c-0.1,0-0.2,0-0.2,0c-0.1,0-0.2,0.1-0.2,0.2c0,0.1,0,0.2,0.2,0.2
				c0.1,0,0.2,0,0.3,0c1.7,0,3.5,0,5.2,0l1.1,0l1.1,0C19.7,16.3,21.5,16.3,23.2,16.3C23.2,16.3,23.2,16.3,23.2,16.3z M23.4,15.9
				L23.4,15.9L23.4,15.9z"/>
		</g>
		<g>
			<path d="M16.8,20.4c-2.1,0-4.3,0-6.4,0c-0.1,0-0.2,0-0.3,0C10,20.3,9.8,20.2,9.9,20c0-0.2,0.1-0.4,0.3-0.4c0.1,0,0.2,0,0.3,0
				c4.2,0,8.5,0,12.7,0c0.5,0,0.6,0.1,0.6,0.4c0,0.3-0.2,0.4-0.7,0.4C21.1,20.4,19,20.4,16.8,20.4z"/>
			<path class="st0" d="M10.3,20.6c-0.1,0-0.1,0-0.2,0c-0.3-0.1-0.5-0.3-0.5-0.6c0-0.3,0.2-0.5,0.5-0.6c0.1,0,0.2,0,0.3,0h0
				c4.2,0,8.5,0,12.7,0c0.2,0,0.8,0,0.8,0.6c0,0.2,0,0.3-0.1,0.4c-0.1,0.1-0.4,0.2-0.7,0.2l-7.2,0c-1.8,0-3.7,0-5.5,0c0,0,0,0,0,0
				C10.4,20.6,10.4,20.6,10.3,20.6C10.4,20.6,10.3,20.6,10.3,20.6z M10.5,19.7c-0.1,0-0.2,0-0.2,0c-0.1,0-0.2,0.1-0.2,0.2
				c0,0.1,0,0.2,0.2,0.2c0,0,0.1,0,0.1,0c0,0,0,0,0.1,0c0,0,0,0,0,0c1.8,0,3.7,0,5.5,0l7.2,0c0.3,0,0.4,0,0.4-0.1c0,0,0,0,0-0.1
				c0-0.1,0-0.2-0.4-0.2C19,19.7,14.7,19.7,10.5,19.7L10.5,19.7C10.5,19.7,10.5,19.7,10.5,19.7z"/>
		</g>
		<g>
			<path d="M16.9,23.4c2.1,0,4.3,0,6.4,0c0.1,0,0.2,0,0.2,0c0.2,0,0.4,0.2,0.4,0.4c0,0.2-0.1,0.4-0.4,0.4c-0.1,0-0.1,0-0.2,0
				c-4.3,0-8.6,0-12.9,0c-0.1,0-0.2,0-0.2,0c-0.2-0.1-0.3-0.2-0.3-0.4c0-0.2,0.1-0.3,0.3-0.4c0.1,0,0.2,0,0.3,0
				C12.6,23.4,14.7,23.4,16.9,23.4z"/>
			<path class="st0" d="M10.3,24.4c0,0-0.1,0-0.2,0c-0.3-0.1-0.5-0.3-0.5-0.6c0-0.3,0.2-0.5,0.5-0.6c0.1,0,0.2,0,0.2,0
				c0,0,0,0,0.1,0c0,0,0,0,0,0l8,0l4.8,0c0,0,0,0,0.1,0c0.1,0,0.1,0,0.2,0c0.3,0,0.5,0.3,0.5,0.6c0,0.3-0.2,0.5-0.5,0.6
				c-0.1,0-0.1,0-0.2,0c0,0,0,0,0,0c-4.3,0-8.6,0-12.9,0C10.4,24.4,10.4,24.4,10.3,24.4C10.3,24.4,10.3,24.4,10.3,24.4z M10.3,23.6
				C10.3,23.6,10.2,23.6,10.3,23.6c-0.2,0-0.3,0.1-0.3,0.2c0,0.1,0,0.2,0.2,0.2c0,0,0.1,0,0.1,0c0,0,0,0,0.1,0c4.3,0,8.6,0,12.9,0
				c0,0,0,0,0.1,0c0,0,0.1,0,0.1,0c0.2,0,0.2-0.1,0.2-0.2c0-0.1,0-0.2-0.2-0.2c0,0-0.1,0-0.1,0c0,0-0.1,0-0.1,0l-7.7,0l-5.1,0
				C10.4,23.6,10.4,23.6,10.3,23.6C10.3,23.6,10.3,23.6,10.3,23.6z"/>
		</g>
		<g>
			<path d="M16.8,21.5c1.3,0,2.7,0,4,0c0.1,0,0.2,0,0.3,0c0.1,0.1,0.3,0.3,0.3,0.4c0,0.1-0.2,0.3-0.3,0.4c-0.1,0.1-0.2,0-0.3,0
				c-2.7,0-5.3,0-8,0c0,0-0.1,0-0.1,0c-0.4,0-0.5-0.1-0.5-0.4c0-0.3,0.2-0.4,0.5-0.4C14.1,21.5,15.5,21.5,16.8,21.5z"/>
			<path class="st0" d="M21,22.5C21,22.5,20.9,22.5,21,22.5c-0.1,0-0.1,0-0.1,0c0,0,0,0,0,0c-2.3,0-4.6,0-7,0l-1,0l0,0
				c0,0,0,0-0.1,0c-0.7,0-0.7-0.4-0.7-0.6c0-0.4,0.3-0.6,0.7-0.6c1,0,2,0,3,0l1.1,0l0.8,0c1.1,0,2.2,0,3.3,0c0,0,0,0,0.1,0
				c0.1,0,0.3,0,0.4,0.1c0.2,0.2,0.3,0.4,0.3,0.5c0,0.2-0.2,0.4-0.4,0.5C21.2,22.5,21.1,22.5,21,22.5z M20.9,22.1
				C20.9,22.1,20.9,22.1,20.9,22.1c0.1,0,0.2,0,0.2,0c0.2-0.1,0.2-0.2,0.2-0.2c0,0,0,0,0,0c0,0,0-0.1-0.2-0.2c0,0-0.1,0-0.1,0
				c0,0,0,0-0.1,0c-1.1,0-2.2,0-3.3,0l-0.8,0l-1.1,0c-1,0-2,0-3,0c-0.4,0-0.4,0.2-0.4,0.2c0,0.1,0,0.2,0.4,0.2c0,0,0,0,0.1,0l0,0
				l1,0C16.2,22.1,18.5,22.1,20.9,22.1C20.9,22.1,20.9,22.1,20.9,22.1z M21.1,22.1L21.1,22.1L21.1,22.1z M21.1,21.7L21.1,21.7
				L21.1,21.7z"/>
		</g>
		<g>
			<path d="M16.8,18.4c-1.4,0-2.8,0-4.1,0c-0.3,0-0.5-0.2-0.5-0.4c0-0.2,0.2-0.4,0.5-0.4c1,0,1.9,0,2.9,0c1.8,0,3.5,0,5.3,0
				c0.1,0,0.2,0,0.3,0c0.2,0.1,0.4,0.2,0.3,0.4c0,0.2-0.1,0.3-0.4,0.4c-0.1,0-0.2,0-0.3,0C19.5,18.4,18.2,18.4,16.8,18.4z"/>
			<path class="st0" d="M21,18.6C20.9,18.6,20.9,18.6,21,18.6l-0.1,0c-1.3,0-2.7,0-4,0l-1.2,0c-1,0-2,0-3,0c-0.2,0-0.4-0.1-0.5-0.2
				C12.1,18.3,12,18.1,12,18c0-0.3,0.3-0.6,0.7-0.6c0.7,0,1.4,0,2.1,0l1.7,0c1.5,0,2.9,0,4.4,0c0,0,0,0,0.1,0c0.1,0,0.2,0,0.2,0
				c0.3,0.1,0.5,0.3,0.5,0.6c0,0.3-0.2,0.5-0.5,0.5C21.1,18.6,21,18.6,21,18.6z M20.8,18.2L20.8,18.2c0.1,0,0.2,0,0.2,0
				c0.1,0,0.2-0.1,0.2-0.2c0-0.1,0-0.2-0.2-0.2c0,0-0.1,0-0.1,0c0,0-0.1,0-0.1,0c0,0,0,0,0,0c-1.5,0-2.9,0-4.4,0l-1.7,0
				c-0.7,0-1.4,0-2.1,0c-0.2,0-0.3,0.1-0.3,0.2c0,0.1,0,0.1,0,0.1c0,0,0.1,0.1,0.3,0.1c1,0,2,0,3,0l1.2,0
				C18.2,18.2,19.5,18.2,20.8,18.2z"/>
		</g>
		<g>
			<path class="st1" d="M10.7,11.1c0-1.7,0-3.3,0-5c4.1,0,8.2,0,12.4,0c0,2,0,4.1,0,6.2c-0.6-0.2-1.1-0.4-1.7-0.7
				c-2.3-0.9-4.6-1.8-6.9-2.7C14.2,8.8,14,8.8,13.8,9c-1,0.7-1.9,1.3-2.9,2C10.9,11,10.8,11,10.7,11.1z M19.5,10
				c0.8,0,1.5-0.7,1.5-1.5C21,7.7,20.3,7,19.5,7C18.7,7,18,7.7,18,8.5C18,9.3,18.7,10,19.5,10z"/>
			<path class="st0" d="M23.2,12.6l-0.8-0.3c-0.4-0.2-0.8-0.3-1.1-0.4l-1.4-0.5c-1.8-0.7-3.7-1.4-5.5-2.2C14.2,9,14.1,9,13.9,9.1
				c-0.7,0.5-1.5,1-2.2,1.5c-0.2,0.2-0.5,0.3-0.7,0.5c0,0-0.1,0.1-0.2,0.1c0,0-0.1,0-0.1,0.1l-0.3,0.2V5.9h12.7V12.6z M14.2,8.6
				c0.1,0,0.2,0,0.4,0.1c1.8,0.7,3.7,1.5,5.5,2.2l1.4,0.5c0.4,0.1,0.8,0.3,1.1,0.4l0.3,0.1V6.3h-12v4.5c0.2-0.2,0.5-0.3,0.7-0.5
				c0.7-0.5,1.4-1,2.2-1.5C13.9,8.7,14,8.6,14.2,8.6z M19.5,10.2c-0.4,0-0.9-0.2-1.2-0.5C18,9.4,17.8,9,17.8,8.5
				c0-0.9,0.7-1.7,1.7-1.7c0.4,0,0.9,0.2,1.2,0.5C21,7.6,21.2,8,21.2,8.5C21.2,9.4,20.4,10.2,19.5,10.2l0-0.2L19.5,10.2
				C19.5,10.2,19.5,10.2,19.5,10.2z M19.5,7.2C19.5,7.2,19.5,7.2,19.5,7.2c-0.7,0-1.3,0.6-1.3,1.3c0,0.3,0.1,0.7,0.4,0.9
				c0.2,0.2,0.6,0.4,0.9,0.4c0,0,0,0,0,0l0,0c0.7,0,1.3-0.6,1.3-1.3c0-0.3-0.1-0.7-0.4-0.9C20.2,7.3,19.8,7.2,19.5,7.2z"/>
		</g>
		<g>
			<path class="st1" d="M10.7,13.3c0-0.4,0-0.7,0-1.1c0-0.1,0.1-0.2,0.1-0.2c1.1-0.8,2.2-1.5,3.3-2.3c0.1-0.1,0.2-0.1,0.3,0
				c2.8,1.1,5.6,2.2,8.4,3.3c0.1,0,0.1,0.1,0.2,0.2c0,0,0,0,0,0.1C18.9,13.3,14.8,13.3,10.7,13.3z"/>
			<path class="st0" d="M23.1,13.5H10.5v-0.2c0-0.1,0-0.2,0-0.3c0-0.3,0-0.5,0-0.8c0-0.2,0.1-0.3,0.2-0.4C11.9,11,13,10.3,14,9.6
				c0.1-0.1,0.3-0.1,0.5,0c2.5,1,5.1,2,8.4,3.3c0.1,0,0.1,0.1,0.2,0.1c0,0,0,0,0.1,0l0.1,0.1L23.1,13.5z M10.9,13.1h11.6
				c-3.1-1.2-5.7-2.3-8.1-3.2c0,0-0.1,0-0.1,0c-1,0.7-2.1,1.4-3.3,2.3c0,0,0,0.1-0.1,0.1c0,0.2,0,0.5,0,0.8
				C10.9,13.1,10.9,13.1,10.9,13.1z"/>
		</g>
		<g>
			<path d="M19.5,10C18.7,10,18,9.3,18,8.5C18,7.7,18.7,7,19.5,7C20.3,7,21,7.7,21,8.5C21,9.3,20.3,10,19.5,10z M19.5,9.2
				c0.4,0,0.7-0.3,0.7-0.7c0-0.4-0.3-0.7-0.7-0.7c-0.4,0-0.7,0.3-0.7,0.7C18.8,8.9,19.1,9.2,19.5,9.2z"/>
			<path class="st0" d="M19.5,10.2c-0.4,0-0.9-0.2-1.2-0.5C18,9.4,17.8,9,17.8,8.5c0-0.9,0.7-1.7,1.7-1.7c0.4,0,0.9,0.2,1.2,0.5
				C21,7.6,21.2,8,21.2,8.5C21.2,9.4,20.4,10.2,19.5,10.2L19.5,10.2C19.5,10.2,19.5,10.2,19.5,10.2z M19.5,7.2
				C19.5,7.2,19.5,7.2,19.5,7.2c-0.7,0-1.3,0.6-1.3,1.3c0,0.3,0.1,0.7,0.4,0.9c0.2,0.2,0.6,0.4,0.9,0.4c0,0,0,0,0,0l0,0
				c0.7,0,1.3-0.6,1.3-1.3c0-0.3-0.1-0.7-0.4-0.9C20.2,7.3,19.8,7.2,19.5,7.2z M19.5,9.4c-0.2,0-0.5-0.1-0.6-0.3
				c-0.2-0.2-0.3-0.4-0.3-0.6c0-0.5,0.4-0.9,0.9-0.9c0,0,0,0,0,0c0.2,0,0.5,0.1,0.6,0.3c0.2,0.2,0.3,0.4,0.3,0.6
				c0,0.2-0.1,0.5-0.3,0.6C20,9.3,19.7,9.4,19.5,9.4L19.5,9.4C19.5,9.4,19.5,9.4,19.5,9.4z M19.5,8C19.5,8,19.5,8,19.5,8
				C19.2,8,19,8.2,19,8.5c0,0.1,0.1,0.2,0.1,0.3C19.2,8.9,19.4,9,19.5,9c0,0,0,0,0,0l0,0c0.1,0,0.3-0.1,0.3-0.1
				C19.9,8.7,20,8.6,20,8.5c0-0.1,0-0.2-0.1-0.3C19.8,8.1,19.6,8,19.5,8z"/>
		</g>
		<g>
			<path class="st1" d="M19.5,9.2c-0.4,0-0.7-0.3-0.7-0.7c0-0.4,0.3-0.7,0.7-0.7c0.4,0,0.7,0.3,0.7,0.7C20.2,8.9,19.9,9.2,19.5,9.2z
				"/>
			<path class="st0" d="M19.5,9.4c-0.2,0-0.5-0.1-0.6-0.3c-0.2-0.2-0.3-0.4-0.3-0.6c0-0.5,0.4-0.9,0.9-0.9c0,0,0,0,0,0
				c0.2,0,0.5,0.1,0.6,0.3c0.2,0.2,0.3,0.4,0.3,0.6c0,0.2-0.1,0.5-0.3,0.6C20,9.3,19.7,9.4,19.5,9.4L19.5,9.4
				C19.5,9.4,19.5,9.4,19.5,9.4z M19.5,8C19.5,8,19.5,8,19.5,8C19.2,8,19,8.2,19,8.5c0,0.1,0.1,0.2,0.1,0.3C19.2,8.9,19.4,9,19.5,9
				c0,0,0,0,0,0l0,0c0.1,0,0.3-0.1,0.3-0.1C19.9,8.7,20,8.6,20,8.5c0-0.1,0-0.2-0.1-0.3C19.8,8.1,19.6,8,19.5,8z"/>
		</g>
	</g>
</g>
</svg>
