<?xml version="1.0" encoding="utf-8"?>
<!-- Generator: Adobe Illustrator 27.1.0, SVG Export Plug-In . SVG Version: 6.00 Build 0)  -->
<svg version="1.1" id="Layer_1" xmlns="http://www.w3.org/2000/svg" xmlns:xlink="http://www.w3.org/1999/xlink" x="0px" y="0px"
	 viewBox="0 0 30 30" style="enable-background:new 0 0 30 30;" xml:space="preserve">
<g>
	<path d="M12.2,21.7c-0.3,0-0.7,0-1,0c-0.4,0-0.7,0.2-0.8,0.5C10,23.1,9.7,24.1,9.3,25c-0.3,0.8-0.7,1.7-1.1,2.6
		C8.1,27.3,8,27.2,8,27.1c-0.7-1.6-1.3-3.2-2-4.8c-0.2-0.4-0.4-0.6-0.9-0.6c-2.2,0-3.8-1.7-3.8-3.9c0-4.2,0-8.4,0-12.5
		c0-0.2,0-0.4,0-0.6c0.3-1.9,1.9-3.2,3.9-3.3c6.5,0,13,0,19.5,0c2.2,0,3.9,1.7,3.9,3.9c0,4.1,0,8.3,0,12.4c0,0.1,0,0.3,0,0.4
		c0.1,0.3,0.2,0.5,0.5,0.5c0.2,0,0.5-0.1,0.6-0.2c0.1-0.1,0.2-0.4,0.2-0.5c0-4.1,0-8.2,0-12.2c0-0.5,0-1-0.1-1.5
		c-0.5-2.4-2.5-4.1-5-4.1c-3.1,0-6.2,0-9.4,0C12,0,8.5,0,5,0c-2.7,0-5,2.3-5,5C0,9.4,0,13.7,0,18c0,2.5,2.1,4.7,4.5,5
		c0.3,0,0.4,0.1,0.5,0.3c0.8,2,1.7,4.1,2.5,6.1c0.1,0.3,0.2,0.5,0.6,0.6c0.4,0.1,0.6-0.1,0.8-0.5c0.8-1.9,1.6-3.8,2.3-5.7
		c0.2-0.5,0.4-0.8,1-0.7c0.4,0.1,0.7-0.3,0.7-0.7C12.9,22,12.6,21.7,12.2,21.7z"/>
	<path d="M29.7,21.6c0.2-0.2,0.3-0.5,0.2-0.8c-0.1-0.3-0.3-0.4-0.6-0.5c-1.4-0.2-2.8-0.4-4.1-0.6c-0.2,0-0.3-0.1-0.4-0.3
		c-0.6-1.2-1.2-2.5-1.8-3.7c-0.1-0.3-0.3-0.5-0.6-0.5c-0.3,0-0.5,0.2-0.7,0.5c-0.6,1.2-1.2,2.4-1.8,3.6c-0.1,0.3-0.3,0.4-0.6,0.4
		c-1.4,0.2-2.7,0.4-4.1,0.6c-0.5,0.1-0.8,0.5-0.6,0.9c0.1,0.1,0.2,0.2,0.3,0.3c0.9,0.9,1.9,1.9,2.9,2.8c0.2,0.2,0.3,0.4,0.2,0.7
		c-0.2,1.3-0.5,2.6-0.7,3.9c-0.1,0.3-0.1,0.6,0.3,0.8c0.3,0.2,0.6,0.1,0.8,0c1.2-0.6,2.4-1.3,3.6-1.9c0.2-0.1,0.3-0.1,0.5,0
		c0.4,0.3,0.9,0.5,1.4,0.7c0.8,0.4,1.6,0.8,2.4,1.3c0.5,0.3,1,0,1-0.6c0-0.1,0-0.1,0-0.2c-0.2-1.3-0.4-2.6-0.7-3.9
		c-0.1-0.3,0-0.6,0.3-0.8C27.8,23.5,28.8,22.5,29.7,21.6z"/>
	<path d="M22.4,6.2c-0.1,0-0.1,0-0.2,0c-4.7,0-9.4,0-14.1,0c-0.2,0-0.4,0-0.6,0c-0.4,0-0.7,0.3-0.7,0.7c0,0.4,0.3,0.6,0.7,0.7
		c0.1,0,0.2,0,0.3,0c2.4,0,4.8,0,7.1,0c0.6,0,1.2,0,1.8,0c1.9,0,3.7,0,5.6,0c0.4,0,0.7-0.3,0.7-0.7C23.1,6.5,22.9,6.2,22.4,6.2z"/>
	<path d="M22.6,11.1c0.3-0.1,0.5-0.3,0.5-0.6c0-0.3-0.2-0.6-0.5-0.6c-0.1,0-0.3,0-0.4,0c-4.8,0-9.7,0-14.5,0c-0.1,0-0.2,0-0.3,0
		c-0.3,0-0.5,0.2-0.5,0.5c-0.1,0.5,0.2,0.8,0.7,0.8c2.5,0,4.9,0,7.4,0c2.4,0,4.8,0,7.2,0C22.4,11.2,22.5,11.2,22.6,11.1z"/>
	<path d="M11.3,13.5c-1.2,0-2.5,0-3.7,0c-0.3,0-0.6,0.1-0.7,0.4c-0.2,0.5,0.2,0.9,0.7,0.9c2.4,0,4.8,0,7.2,0c0.5,0,0.8-0.2,0.8-0.6
		c0-0.4-0.3-0.7-0.8-0.7C13.7,13.5,12.5,13.5,11.3,13.5z"/>
</g>
</svg>
