<?xml version="1.0" encoding="utf-8"?>
<!-- Generator: Adobe Illustrator 27.1.0, SVG Export Plug-In . SVG Version: 6.00 Build 0)  -->
<svg version="1.1" id="Layer_1" xmlns="http://www.w3.org/2000/svg" xmlns:xlink="http://www.w3.org/1999/xlink" x="0px" y="0px"
	 viewBox="0 0 30 30" style="enable-background:new 0 0 30 30;" xml:space="preserve">
<style type="text/css">
	.st0{fill:#FFFFFF;}
</style>
<g>
	<g>
		<path d="M8.5,0c0.4,0,0.7,0,1.1,0c0.9,0.2,1.6,0.5,2.3,1.1c0.7,0.7,1.5,1.4,2.2,2.2c0.4,0.4,0.7,0.9,1,1.4
			c0.3-0.4,0.5-0.8,0.8-1.1c1.3-1.5,2.5-3.1,4.6-3.6c0.4,0,0.7,0,1.1,0c0,0,0.1,0,0.1,0.1c1.7,0.3,2.8,1.6,3.1,3.3
			c0.2,1.3-0.5,2.9-2.1,3.7c-0.2,0.1-0.5,0.2-0.7,0.3c0,0,0,0,0,0c0.1,0,0.2,0,0.3,0c1.6,0,3.2,0,4.7,0c1,0,1.6,0.6,1.6,1.6
			c0,1.5,0,2.9,0,4.4c0,0.8-0.5,1.4-1.2,1.5c-0.1,0-0.2,0-0.3,0c0,0.1,0,0.2,0,0.4c0,4.3,0,8.6,0,13c0,1-0.6,1.6-1.6,1.6
			c-6.9,0-13.8,0-20.7,0C3.7,30,3,29.3,3,28.3c0-4.3,0-8.6,0-13c0-0.1,0-0.2,0-0.3c-0.9-0.1-1.5-0.6-1.5-1.5c0-1.5,0-3,0-4.5
			c0-0.9,0.7-1.5,1.6-1.5c1.6,0,3.2,0,4.7,0c0.1,0,0.2,0,0.4,0C7.8,7.3,7.5,7.2,7.2,7c-1.3-0.8-2-1.9-1.9-3.5C5.4,2.1,6.1,1,7.5,0.3
			C7.8,0.2,8.2,0.1,8.5,0z M12,9c0,6.5,0,13,0,19.4c2,0,4,0,5.9,0c0-6.5,0-13,0-19.4C16,9,14,9,12,9z M10.5,28.5c0-4.5,0-9,0-13.5
			c-2,0-4,0-5.9,0c0,4.5,0,9,0,13.5C6.5,28.5,8.5,28.5,10.5,28.5z M19.5,15c0,4.5,0,9,0,13.5c2,0,4,0,5.9,0c0-4.5,0-9,0-13.5
			C23.5,15,21.5,15,19.5,15z M10.5,13.5c0-1.5,0-3,0-4.4C8,9,5.5,9,3,9c0,1.5,0,3,0,4.4C5.5,13.5,8,13.5,10.5,13.5z M19.5,13.5
			c2.5,0,5,0,7.5,0c0-1.5,0-3,0-4.4c-2.5,0-5,0-7.5,0C19.5,10.5,19.5,12,19.5,13.5z M17.3,6.9c0.7-0.1,1.4-0.2,2-0.3
			c0.9-0.2,1.9-0.5,2.7-0.9C23.4,5,23.6,3.1,22.4,2c-0.8-0.7-1.9-0.7-2.9,0c-1.4,1-2.6,2.3-3.4,3.9c-0.1,0.2-0.2,0.4-0.2,0.5
			c-0.1,0.2-0.1,0.4,0.2,0.4C16.5,6.8,16.9,6.9,17.3,6.9z M13,6.9c0.2,0,0.5,0,0.8-0.1c0.5-0.1,0.5-0.2,0.3-0.6
			c-0.3-0.6-0.7-1.2-1.1-1.8c-0.8-1-1.6-2-2.7-2.6c-0.9-0.5-2-0.4-2.7,0.2c-1.2,1.1-0.9,3,0.6,3.7C9.7,6.5,11.3,6.8,13,6.9z"/>
	</g>
	<g>
		<path class="st0" d="M20.4,0c-2.1,0.5-3.3,2.1-4.6,3.6c-0.3,0.4-0.5,0.7-0.8,1.1c-0.3-0.5-0.7-1-1-1.4c-0.7-0.8-1.4-1.5-2.2-2.2
			c-0.6-0.6-1.4-1-2.3-1.1C13.2,0,16.8,0,20.4,0z"/>
	</g>
	<g>
		<path class="st0" d="M12,9c2,0,4,0,5.9,0c0,6.5,0,12.9,0,19.4c-2,0-4,0-5.9,0C12,22,12,15.5,12,9z"/>
	</g>
	<g>
		<path class="st0" d="M10.5,28.5c-2,0-4,0-5.9,0c0-4.5,0-9,0-13.5c2,0,3.9,0,5.9,0C10.5,19.5,10.5,24,10.5,28.5z"/>
	</g>
	<g>
		<path class="st0" d="M19.5,15c2,0,4,0,5.9,0c0,4.5,0,9,0,13.5c-2,0-4,0-5.9,0C19.5,24,19.5,19.5,19.5,15z"/>
	</g>
	<g>
		<path class="st0" d="M10.5,13.5c-2.5,0-5,0-7.5,0c0-1.5,0-3,0-4.4c2.5,0,5,0,7.5,0C10.5,10.5,10.5,12,10.5,13.5z"/>
	</g>
	<g>
		<path class="st0" d="M19.5,13.5c0-1.5,0-2.9,0-4.4c2.5,0,5,0,7.5,0c0,1.5,0,2.9,0,4.4C24.5,13.5,22,13.5,19.5,13.5z"/>
	</g>
	<g>
		<path class="st0" d="M17.3,6.9c-0.4,0-0.8-0.1-1.2-0.1c-0.3,0-0.3-0.2-0.2-0.4c0.1-0.2,0.1-0.4,0.2-0.5c0.9-1.5,2-2.8,3.4-3.9
			c1-0.7,2.1-0.7,2.9,0c1.2,1,1,3-0.4,3.7c-0.8,0.4-1.8,0.6-2.7,0.9C18.6,6.8,18,6.8,17.3,6.9z"/>
	</g>
	<g>
		<path class="st0" d="M13,6.9c-1.7-0.1-3.4-0.4-4.9-1.1C6.6,5.1,6.3,3.2,7.6,2.1c0.7-0.7,1.8-0.8,2.7-0.2c1.1,0.7,2,1.6,2.7,2.6
			c0.4,0.6,0.8,1.2,1.1,1.8c0.2,0.4,0.1,0.5-0.3,0.6C13.5,6.9,13.2,6.9,13,6.9z"/>
	</g>
</g>
</svg>
