<?xml version="1.0" encoding="utf-8"?>
<!-- Generator: Adobe Illustrator 27.1.0, SVG Export Plug-In . SVG Version: 6.00 Build 0)  -->
<svg version="1.1" id="Layer_1" xmlns="http://www.w3.org/2000/svg" xmlns:xlink="http://www.w3.org/1999/xlink" x="0px" y="0px"
	 viewBox="0 0 30 30" style="enable-background:new 0 0 30 30;" xml:space="preserve">
<style type="text/css">
	.st0{fill:#231F20;}
</style>
<g>
	<g>
		<g>
			<path d="M15.6,29.9l-0.5,0c-0.1,0-0.1,0-0.2,0c-0.1,0-0.1,0-0.2,0c-1.1-0.1-2.2-0.1-3.3-0.2c-1.3-0.1-2.7-0.1-4-0.2
				c-0.5,0-1-0.2-1.5-0.3c-1.6-0.5-2.8-1.4-3.5-2.6c-0.7-1.2-0.8-2.7-0.4-4.3c0.7-2.7,2.5-4.9,5.3-6.8c0.5-0.3,1.2,0,1.4,0.2
				c1.9,1.5,4,2.2,6.3,2.2c2.2,0,4.2-0.8,6-2.2c0.6-0.5,1.1-0.5,1.8,0c2.4,1.8,4,3.8,4.9,6.2c0.4,1.2,0.5,2.5,0.2,3.8
				c-0.4,1.7-1.5,2.8-3,3.3c-1.6,0.5-3,0.8-4.4,0.9C18.9,29.8,17.1,29.8,15.6,29.9L15.6,29.9z M15,28.6C15,28.6,15,28.6,15,28.6
				c0.1,0,0.1,0,0.2,0c1.6,0,3.5,0,5.3-0.2c1.3-0.1,2.6-0.4,4.1-0.9c1.4-0.4,1.9-1.6,2.1-2.4c0.3-1.1,0.2-2.1-0.1-3.1
				c-0.8-2.1-2.2-3.9-4.5-5.6c-0.1,0-0.1-0.1-0.1-0.1c0,0-0.1,0-0.1,0.1c-1.9,1.6-4.2,2.4-6.7,2.5c-0.1,0-0.1,0-0.2,0
				c-2.5,0-4.8-0.8-6.9-2.5c0,0-0.1,0-0.1-0.1c-2.5,1.8-4,3.7-4.7,6.1c-0.7,2.6,0.4,4.6,3,5.4c0.4,0.1,0.8,0.3,1.2,0.3
				c1.3,0.1,2.7,0.2,4,0.2c1.1,0,2.2,0.1,3.4,0.2C14.9,28.6,14.9,28.6,15,28.6z"/>
			<path class="st0" d="M15.7,30l-0.6,0c-0.1,0-0.1,0-0.2,0c-0.1,0-0.1,0-0.2,0c-1.1-0.1-2.2-0.1-3.3-0.2c-1.3-0.1-2.7-0.1-4-0.2
				c-0.5,0-1-0.2-1.5-0.3c-1.6-0.5-2.8-1.4-3.5-2.7c-0.7-1.3-0.8-2.8-0.4-4.4c0.7-2.7,2.5-4.9,5.4-6.9c0.2-0.2,0.5-0.2,0.9-0.1
				c0.3,0.1,0.5,0.2,0.7,0.3c1.9,1.5,4,2.2,6.2,2.2c2.2,0,4.2-0.8,5.9-2.2c0.6-0.5,1.2-0.5,1.9,0c2.5,1.8,4.1,3.9,4.9,6.2
				c0.4,1.2,0.5,2.5,0.2,3.8c-0.4,1.7-1.5,2.9-3,3.4c-1.6,0.5-3.1,0.8-4.4,0.9C18.9,29.9,17.2,29.9,15.7,30L15.7,30z M15.1,29.7
				l0.4,0l0,0l0.1,0c1.5,0,3.2,0,5-0.2c1.4-0.1,2.8-0.4,4.4-0.9c1.5-0.5,2.5-1.6,2.9-3.2c0.3-1.3,0.3-2.5-0.2-3.7
				c-0.8-2.3-2.4-4.3-4.8-6.1c-0.6-0.4-1.1-0.4-1.6,0c-1.7,1.4-3.8,2.2-6,2.2c-2.3,0-4.5-0.7-6.4-2.2c-0.2-0.2-0.9-0.5-1.3-0.2
				c-2.8,1.9-4.5,4.1-5.3,6.8c-0.4,1.6-0.3,3,0.4,4.2C3.2,27.6,4.4,28.5,6,29c0.4,0.1,0.9,0.3,1.5,0.3c1.3,0.1,2.7,0.2,4,0.2
				c1.1,0,2.2,0.1,3.3,0.2l0,0l0,0c0.1,0,0.1,0,0.2,0C15,29.8,15.1,29.8,15.1,29.7L15.1,29.7z M15.2,28.7L15.2,28.7
				c-0.1,0-0.1,0-0.1,0l0,0c0,0-0.1,0-0.1,0l0,0l0,0c-1.1-0.1-2.3-0.1-3.3-0.2c-1.3-0.1-2.7-0.1-4-0.2c-0.4,0-0.8-0.2-1.2-0.3
				c-2.7-0.8-3.8-2.9-3.1-5.6c0.7-2.4,2.2-4.3,4.7-6.1l0,0l0.1,0c0,0,0.1,0,0.1,0.1c2,1.6,4.3,2.4,6.8,2.4c0.1,0,0.1,0,0.2,0
				c2.5,0,4.7-0.9,6.7-2.4c0.1,0,0.1-0.1,0.1-0.1l0,0l0.1,0c0,0,0.1,0.1,0.1,0.1c2.3,1.7,3.7,3.5,4.5,5.6c0.4,1,0.4,2.1,0.1,3.1
				c-0.2,0.9-0.8,2.1-2.2,2.5c-1.5,0.5-2.9,0.8-4.2,0.9C18.7,28.7,16.9,28.7,15.2,28.7L15.2,28.7z M15,28.5C15,28.5,15,28.5,15,28.5
				c0.1,0,0.1,0,0.2,0c1.7,0,3.5,0,5.3-0.2c1.3-0.1,2.6-0.4,4.1-0.9c1.3-0.4,1.9-1.5,2.1-2.4c0.3-1,0.2-2.1-0.1-3
				c-0.8-2.1-2.2-3.9-4.4-5.5c0,0,0,0-0.1,0c0,0,0,0-0.1,0c-2,1.6-4.2,2.5-6.8,2.5c-0.1,0-0.1,0-0.2,0c-2.5,0-4.9-0.8-7-2.5
				c0,0,0,0,0,0c-2.5,1.7-3.9,3.6-4.6,6C2.7,25,3.8,27,6.3,27.8c0.4,0.1,0.8,0.3,1.2,0.3c1.3,0.1,2.7,0.2,4,0.2
				c1.1,0,2.2,0.1,3.3,0.2C14.9,28.5,14.9,28.5,15,28.5z"/>
		</g>
	</g>
	<g>
		<g>
			<path d="M15,15.8C15,15.8,15,15.8,15,15.8L15,15.8c-2.1,0-4.1-0.8-5.6-2.3C8,12,7.2,10,7.2,7.9c0-2.1,0.8-4.1,2.3-5.5
				C11,0.9,12.9,0.1,15,0.1c0,0,0,0,0,0c2.1,0,4.1,0.8,5.5,2.3c1.5,1.5,2.3,3.5,2.3,5.6c0,2.1-0.8,4-2.3,5.5
				C19.1,15,17.1,15.8,15,15.8z M15,14.6C15,14.6,15,14.6,15,14.6c1.8,0,3.4-0.7,4.7-1.9c1.2-1.2,1.9-2.9,1.9-4.6
				c0-1.8-0.7-3.5-1.9-4.8c-1.2-1.3-2.9-1.9-4.7-1.9c0,0,0,0,0,0c-1.8,0-3.5,0.7-4.7,1.9C9.1,4.5,8.4,6.1,8.4,7.9
				c0,1.8,0.7,3.5,1.9,4.7C11.5,13.9,13.2,14.6,15,14.6L15,14.6z"/>
			<path class="st0" d="M15,15.9L15,15.9c-2.2,0-4.2-0.8-5.6-2.3c-1.5-1.5-2.3-3.5-2.3-5.7c0-2.1,0.8-4.1,2.3-5.6
				C10.9,0.8,12.9,0,15,0c2.1,0,4.1,0.8,5.6,2.3C22.2,3.8,23,5.9,23,8c0,2.1-0.8,4.1-2.3,5.6C19.1,15.1,17.1,15.9,15,15.9z
				 M15.1,0.2C13,0.2,11,1,9.6,2.5C8.1,3.9,7.3,5.8,7.3,7.9c0,2.1,0.8,4.1,2.2,5.5c1.4,1.5,3.4,2.3,5.5,2.3l0,0.1v-0.1
				c2.1,0,4-0.8,5.5-2.2c1.5-1.4,2.3-3.4,2.3-5.4c0-2.1-0.8-4.1-2.2-5.5C19.1,1,17.1,0.2,15.1,0.2z M15,14.7L15,14.7
				c-1.8,0-3.5-0.7-4.8-2c-1.3-1.3-1.9-3-1.9-4.8c0-1.8,0.7-3.5,2-4.7c1.3-1.3,3-1.9,4.8-1.9c1.8,0,3.5,0.7,4.8,2
				c1.3,1.3,1.9,3,1.9,4.8c0,1.8-0.7,3.5-2,4.7C18.5,14,16.8,14.7,15,14.7z M15,14.5L15,14.5c1.7,0,3.4-0.7,4.6-1.9
				c1.2-1.2,1.9-2.8,1.9-4.5c0-1.8-0.7-3.5-1.9-4.7c-1.2-1.2-2.8-1.9-4.6-1.9c-1.8,0-3.4,0.7-4.6,1.9C9.2,4.5,8.5,6.2,8.5,7.9
				c0,1.8,0.7,3.4,1.9,4.7C11.6,13.8,13.2,14.5,15,14.5z"/>
		</g>
	</g>
</g>
</svg>
