<?xml version="1.0" encoding="utf-8"?>
<!-- Generator: Adobe Illustrator 27.1.0, SVG Export Plug-In . SVG Version: 6.00 Build 0)  -->
<svg version="1.1" id="Layer_1" xmlns="http://www.w3.org/2000/svg" xmlns:xlink="http://www.w3.org/1999/xlink" x="0px" y="0px"
	 viewBox="0 0 30 30" style="enable-background:new 0 0 30 30;" xml:space="preserve">
<style type="text/css">
	.st0{fill:#231F20;}
</style>
<g>
	<path class="st0" d="M17.3,18.3c-1.8,0-3.6,0-5.4,0c0,0,0,0,0,0c-0.5,0-0.7-0.2-0.8-0.6c-1.2-4-2.5-8.1-3.7-12L6.6,3.4
		c-0.2-0.6-0.4-0.8-1-0.8c-1.6,0-3.1,0-4.7,0c-0.2,0-0.4,0.1-0.6,0.2C0.1,3-0.1,3.4,0,3.7c0.1,0.4,0.4,0.6,0.8,0.6
		c1.4,0,2.5,0,3.6,0c0.5,0,0.7,0.2,0.8,0.6c1.1,3.6,2.2,7.2,3.3,10.8c0.3,1.1,0.7,2.3,1,3.4C9.8,19.9,10,20,10.8,20
		c1.2,0,2.4,0,3.6,0c1,0,2.1,0,3.1,0c2.2,0,4.5,0,6.7,0c0.6,0,0.9-0.2,1.2-0.8c0.8-1.8,1.5-3.7,2.3-5.5c0.3-0.7,0.6-1.4,0.9-2.1
		c0.1-0.3,0.2-0.6,0.4-0.9c0.3-0.7,0.6-1.4,0.9-2.1C30,8.3,30,8,29.9,7.7c-0.1-0.2-0.4-0.4-0.7-0.4c-1.3,0-2.7,0-3.9,0
		c-0.4,0-0.6,0.3-0.7,0.5c-0.1,0.3-0.1,0.6,0,0.8c0.2,0.2,0.4,0.4,0.7,0.4c0.4,0,0.9,0,1.4,0c0.2,0,0.4,0,0.7,0h0.5l-0.1,0.4
		c0,0,0,0.1,0,0.1c0,0.1,0,0.1-0.1,0.2c-0.3,0.7-0.6,1.4-0.9,2.1c-0.8,1.9-1.6,3.9-2.4,5.8c-0.2,0.5-0.6,0.5-0.8,0.5
		C21.4,18.3,19.3,18.3,17.3,18.3"/>
	<path class="st0" d="M25.1,23.8c-0.5,0-0.9,0.1-1.3,0.4c-0.3,0.3-0.5,0.6-0.5,1c0,0.7,0.8,1.3,1.8,1.3c0,0,0,0,0,0
		c0.5,0,0.9-0.1,1.2-0.4c0.3-0.3,0.5-0.6,0.5-1C26.8,24.4,26.1,23.8,25.1,23.8z"/>
	<path class="st0" d="M9.5,23.8C9.5,23.8,9.5,23.8,9.5,23.8c-1,0-1.8,0.8-1.8,1.8c0,0.5,0.2,0.9,0.5,1.3c0.3,0.3,0.8,0.5,1.3,0.5
		c1,0,1.8-0.8,1.8-1.8c0-0.5-0.2-0.9-0.5-1.3C10.4,24,10,23.8,9.5,23.8z"/>
	<path class="st0" d="M17,2.9c-0.3,0.1-0.6,0.4-0.9,0.4c-0.3,0-0.6-0.3-1-0.4c-2.4-0.9-4.9,0.8-4.8,3.4c0,1.2,0.4,2.2,1,3.2
		c1.2,1.8,2.8,3.1,4.7,4.1c0.1,0.1,0.3,0,0.4,0c1.4-0.8,2.6-1.7,3.7-2.9c1.1-1.2,1.8-2.5,1.9-4.2C22.1,3.5,19.2,2.1,17,2.9z"/>
</g>
</svg>
