<svg xmlns="http://www.w3.org/2000/svg" width="31" height="20" viewBox="0 0 31 20">
    <g id="prefix__Group_3556" data-name="Group 3556" transform="translate(-1033.152 -228.844)">
        <path id="prefix__Path_4547" fill="#ededed" d="M1063.152 228.844h-29l-.527.615v17.81a1 1 0 0 0 1 1h28.921l.606-.425v-18a1 1 0 0 0-1-1zm0 0" data-name="Path 4547"/>
        <path id="prefix__Path_4548" fill="#e1e1e6" d="M1034.152 244.844v-16a1 1 0 0 0-1 1v18a1 1 0 0 0 1 1h29a1 1 0 0 0 1-1h-27a3 3 0 0 1-3-3zm0 0" data-name="Path 4548"/>
        <path id="prefix__Path_4549" fill="#e5646e" d="M1053.652 238.844a5 5 0 1 1-1.465-3.536 5 5 0 0 1 1.465 3.536zm0 0" data-name="Path 4549"/>
    </g>
</svg>
