<svg version="1.2" baseProfile="tiny-ps" xmlns="http://www.w3.org/2000/svg" viewBox="0 0 1000 640" width="31" height="20">
	<title>Flag_of_Cambodia-svg</title>
	<style>
		tspan { white-space:pre }
		.shp0 { fill: #032ea1 } 
		.shp1 { fill: #e00025 } 
		.shp2 { fill: #ffffff;stroke: #000000;stroke-linejoin:bevel;stroke-width: 1.536 } 
		.shp3 { fill: #ffffff;stroke: #000000;stroke-linejoin:bevel;stroke-width: 1.512 } 
		.shp4 { fill: #ffffff;stroke: #000000;stroke-width: 1.536 } 
		.shp5 { fill: #ffffff;stroke: #000000;stroke-width: 1.57 } 
		.shp6 { fill: none;stroke: #000000;stroke-width: 1.28 } 
		.shp7 { fill: none;stroke: #000000;stroke-width: 1.536 } 
		.shp8 { fill: #ffffff;stroke: #000000;stroke-linejoin:bevel;stroke-width: 1.654 } 
		.shp9 { fill: #ffffff;stroke: #000000;stroke-width: 1.672 } 
		.shp10 { fill: #ffffff;stroke: #000000;stroke-width: 1.669 } 
	</style>
	<path id="Layer" class="shp0" d="M0 0L1000 0L1000 640L0 640L0 0Z" />
	<path id="Layer" class="shp1" d="M0 160L1000 160L1000 480L0 480L0 160Z" />
	<g id="Layer">
		<g id="Layer">
			<path id="Layer" class="shp2" d="M409.86 299.99L591.94 299.99L591.94 370.05L409.86 370.05L409.86 299.99Z" />
			<path id="Layer" class="shp2" d="M582.55 338.68L588.28 338.68L588.28 365.07L582.55 365.07L582.55 338.68ZM409.86 325.64L591.94 325.64L591.94 333.78L409.86 333.78L409.86 325.64ZM409.86 314.6L591.94 314.6L591.94 321.78L409.86 321.78L409.86 314.6Z" />
			<path id="Layer" class="shp3" d="M409.86 303.58L591.94 303.58L591.94 310.54L409.86 310.54L409.86 303.58Z" />
			<path id="Layer" class="shp2" d="M457.8 338.68L463.53 338.68L463.53 365.07L457.8 365.07L457.8 338.68ZM536.18 338.68L541.92 338.68L541.92 365.07L536.18 365.07L536.18 338.68ZM411.3 338.68L417.04 338.68L417.04 365.07L411.3 365.07L411.3 338.68ZM422.55 338.68L428.28 338.68L428.28 365.07L422.55 365.07L422.55 338.68ZM434.55 338.68L440.28 338.68L440.28 365.07L434.55 365.07L434.55 338.68ZM446.55 338.68L452.28 338.68L452.28 365.07L446.55 365.07L446.55 338.68ZM547.06 338.68L552.8 338.68L552.8 365.07L547.06 365.07L547.06 338.68ZM559.06 338.68L564.8 338.68L564.8 365.07L559.06 365.07L559.06 338.68ZM571.06 338.68L576.8 338.68L576.8 365.07L571.06 365.07L571.06 338.68Z" />
			<path id="Layer" class="shp4" d="M338.64 373.74C341.46 372.3 344.67 368.96 345.72 365.22L654.63 365.22C655.68 368.96 658.9 372.3 661.71 373.74L338.64 373.74Z" />
		</g>
		<path id="Layer" fill-rule="evenodd" class="shp4" d="M496.23 193.34C496.23 193.34 496 186.76 499.83 186.68C503.66 186.75 503.43 193.34 503.43 193.34L496.23 193.34ZM523.42 280.6L523.42 271.74C523.55 267.31 527.84 266.99 527.96 263.76C527.96 263.76 528.52 258.92 527.24 256.71C525.5 263.19 522.35 262 522.35 259.34C522.35 257.01 524.14 254.85 527.8 249.21C528.98 247.4 528.25 241.75 526.61 239.73C525.97 244.64 525.25 247 523.13 247C521.85 247 520.8 246.16 520.8 243.7C520.8 240.57 522.92 238.99 523.96 236.14C525.18 232.81 524.34 229.42 522.32 227.53C521.45 232.38 521.71 234.31 519.56 234.31C515.22 232.94 519.56 226.65 520.48 225.07C521.29 222.04 519.05 219.53 519.05 219.53C517.67 223.83 517.23 224.19 515.74 223.79C513.86 223.28 514.1 220.5 516.39 218.24C517.84 216.82 517.69 214.71 516.13 213.01C514.5 216.2 511.88 215.77 512.27 213.83L513.64 207.03L486.03 207.03L487.28 214.06C487.09 215.87 485.09 216.05 483.53 213C481.98 214.7 481.83 216.82 483.27 218.24C485.57 220.49 485.81 223.28 483.93 223.78C482.44 224.18 482 223.83 480.62 219.53C480.62 219.53 478.12 223.22 479.18 225.06C480.11 226.65 484.45 232.93 480.11 234.31C477.96 234.31 478.21 232.38 477.35 227.53C475.33 229.42 474.49 232.81 475.71 236.14C476.75 238.98 478.87 240.56 478.87 243.7C478.87 246.16 477.82 246.99 476.53 246.99C474.42 246.99 473.69 244.64 473.06 239.73C471.41 241.75 470.69 247.4 471.86 249.21C475.53 254.85 477.32 257.01 477.32 259.34C477.32 262 474.16 263.19 472.43 256.71C471.15 258.92 471.7 263.76 471.7 263.76C471.83 266.99 476.12 267.31 476.24 271.74L476.24 280.6L523.42 280.6ZM511.87 206.97L512.5 201.97L487.16 201.97L487.8 206.97L511.87 206.97ZM510.17 201.86L510.71 197.75L488.95 197.75L489.49 201.86L510.17 201.86ZM506.72 197.61L507.08 193.5L492.58 193.5L492.95 197.61L506.72 197.61ZM545.78 373.74C542.54 372.49 537.82 369.06 537.82 365.62L537.82 326.75L542.04 321.38L457.6 321.38L461.64 326.75L461.64 365.63C461.64 369.07 458.4 372.49 455.16 373.74L545.78 373.74Z" />
		<path id="Layer" class="shp2" d="M472.61 338.68L478.35 338.68L478.35 365.07L472.61 365.07L472.61 338.68ZM521.12 338.68L526.86 338.68L526.86 365.07L521.12 365.07L521.12 338.68Z" />
		<path id="Layer" class="shp4" d="M456.08 277.13C459.62 278.52 460.49 281.72 460.49 281.72L460.49 300.56L538.49 300.56L538.49 281.72C538.49 281.72 539.11 278.51 542.64 277.13L542.52 311.85L542.52 321.38L456.08 321.38L456.08 277.13L456.08 277.13Z" />
		<path id="Layer" class="shp4" d="M469.68 373.74C472.5 372.49 477.36 369.07 477.36 365.63L477.36 322.12C476.28 319.39 473.24 318.19 470.51 316.75L527.82 316.75C525.71 318.26 522.41 319.69 521.81 322.12L521.81 365.62C521.81 369.06 527.96 372.49 530.79 373.74L469.68 373.74Z" />
		<path id="Layer" class="shp4" d="M460.63 317.21L460.63 285.87L468.48 285.87L468.48 282.81L530.63 282.81L530.63 285.87L538.48 285.87L538.48 317.21L460.63 317.21ZM481.05 373.74C483.81 372.49 487.85 369.07 487.85 365.63L487.85 328.48L485.57 325.11L513.88 325.11L511.6 328.48L511.6 365.62C511.6 369.06 515.64 372.49 518.4 373.74L481.05 373.74Z" />
		<path id="Layer" class="shp5" d="M492.56 325.11L506.91 325.11L506.91 373.71L492.56 373.71L492.56 325.11Z" />
		<path id="Layer" class="shp2" d="M510.68 321.59L486.87 320.63L484.92 314.42C484.92 311.3 475.83 311.08 471.04 308.35L528.57 308.35C523.78 311.08 514.47 311.22 514.44 314.42L510.68 321.59Z" />
		<path id="Layer" class="shp4" d="M525.68 280.6C525.68 272.76 526.01 269.74 528.42 269.74L528.42 294.67C522.52 296.81 518.3 304.35 518.3 304.35L481.16 304.35C481.16 304.35 476.95 296.81 471.04 294.67L471.04 269.74C474.01 269.74 474.03 272.9 474.03 280.6L525.68 280.6ZM528.42 277.38C528.42 268.39 536.18 267.38 536.18 267.38L536.18 275.38C533.23 275.26 531.8 277.91 531.8 281.85C531.8 285.8 534.18 285.86 534.18 285.86L534.18 308.57L528.42 308.57L528.42 277.38Z" />
		<path id="Layer" class="shp4" d="M471.07 308.57L465.31 308.57L465.31 285.86C465.31 285.86 467.69 285.8 467.69 281.85C467.69 277.91 466.27 275.26 463.32 275.38L463.32 267.38C463.32 267.38 471.08 268.39 471.08 277.38L471.07 308.57Z" />
		<g id="Layer">
			<path id="Layer" class="shp6" d="M486.37 215.45L513.78 215.45M483.12 224.01L516.6 224.01M479.88 234.39L519.72 234.39M476.48 247.08L523.74 247.08M475.4 261.54L524.08 261.54" />
			<path id="Layer" class="shp7" d="M460.63 308.73L538.48 308.73M485.33 308.74L514.19 308.74L514.19 319.35L485.33 319.35L485.33 308.74Z" />
		</g>
		<path id="Layer" fill-rule="evenodd" class="shp4" d="M518.04 285.24C513.25 290.98 513.69 300.73 513.75 306.47L486 306.47C486.06 300.73 486.5 290.98 481.72 285.24L518.04 285.24ZM497.32 219.43L493.51 217.47L493.51 211.88C495.07 212.34 496.81 212.53 496.98 215.01C497.52 211.47 498.5 211.65 500.03 210.27C501.56 211.65 502.54 211.47 503.08 215.01C503.25 212.53 505 212.34 506.55 211.87L506.55 217.47L502.75 219.43L497.32 219.43Z" />
		<path id="Layer" class="shp4" d="M497.06 228.62L490.75 224.27L490.75 219.12C492.96 219.63 495.44 219.84 495.69 222.56C496.46 218.68 497.85 216.68 500.03 215.17C502.21 216.68 503.6 218.68 504.37 222.56C504.62 219.84 507.1 219.63 509.32 219.12L509.32 224.27L503 228.62L497.06 228.62Z" />
		<path id="Layer" fill-rule="evenodd" class="shp4" d="M496.61 242.94L489.35 236.56L489.35 228.98C491.89 229.73 494.75 230.04 495.03 234.03C495.92 228.34 497.52 225.39 500.03 223.17C502.54 225.39 504.14 228.33 505.02 234.03C505.3 230.04 508.16 229.73 510.7 228.98L510.7 236.55L503.44 242.93L496.61 242.94ZM510 251.4L503.44 260.48L496 260.48L489.44 251.4L510 251.4ZM513.83 266.65C510.54 268.44 509.33 272.02 508.98 278.73L490.5 278.73C490.15 272.02 488.94 268.44 485.65 266.65L513.83 266.65Z" />
		<path id="Layer" class="shp2" d="M485.36 251.4L485.36 242.28C488.48 243.14 490.66 245.1 491.4 247.49C491.32 244.21 495.37 237.89 499.73 234C504.07 237.48 508.06 244.46 508.06 247.49C508.96 244.98 510.98 243.14 514.1 242.28L514.1 251.4L485.36 251.4Z" />
		<path id="Layer" class="shp2" d="M483.98 266.65L483.98 257.52C487.4 258.39 489.79 260.35 490.6 262.74C490.52 259.46 494.96 253.14 499.74 249.25C504.5 252.72 508.87 259.71 508.87 262.74C509.86 260.23 512.07 258.38 515.49 257.52L515.49 266.65L483.98 266.65Z" />
		<path id="Layer" class="shp2" d="M480.13 285.37L480.13 274.84C484.39 275.94 487 279.1 488.37 280.92C488.37 275.59 494.68 266.62 499.73 263.7C504.66 266.54 511.09 275.23 511.09 280.92C512.43 279.09 515.08 275.94 519.33 274.84L519.33 285.37L480.13 285.37Z" />
		<path id="Layer" class="shp2" d="M482.44 308.73L482.44 297.91C486.19 299.38 487.28 303.01 488.49 305.46C487.9 294.74 494.67 282.69 499.73 279.7C504.79 282.69 511.43 294.48 510.97 305.46C512.15 303 513.27 299.38 517.03 297.91L517.03 308.73L482.44 308.73Z" />
		<path id="Layer" class="shp4" d="M485.08 325.11L485.08 314.29C489.1 315.23 489.25 316.68 490.5 319.1C490.04 312.55 494.68 305.07 499.74 302.08C504.8 305.07 509.44 312.55 508.98 319.1C510.23 316.68 510.47 315.23 514.4 314.29L514.4 325.11L485.08 325.11Z" />
		<g id="a">
			<path id="Layer" class="shp4" d="M345.72 365.22L345.72 332.52C344.65 328.35 341.12 324.67 338.46 323.93L338.46 295.14L344.44 298.38L351.28 328.48L351.28 365.22L345.72 365.22Z" />
			<path id="Layer" class="shp4" d="M345.72 365.35L345.72 332.52C344.65 328.36 341.12 324.67 338.46 323.94L338.46 293.15C342.48 293.15 344.44 298.38 344.44 298.38L351.28 328.48L351.28 365.1L345.72 365.35Z" />
			<path id="Layer" class="shp4" d="M341.47 373.74C344.24 372.49 348.27 369.06 348.27 365.62L348.27 324.75L346.37 321.38L416 321.38L413.29 324.75L413.29 365.62C413.29 369.06 416.06 372.49 418.82 373.74L341.47 373.74Z" />
			<path id="Layer" class="shp4" d="M355.41 373.74C358.18 372.49 362.21 369.06 362.21 365.62L362.21 326.75L356.42 321.38L403.76 321.37L397.97 326.75L397.97 365.62C397.97 369.06 402 372.49 404.77 373.74L355.41 373.74Z" />
			<path id="Layer" class="shp4" d="M362.04 373.74C364.81 372.49 368.84 369.06 368.84 365.62L368.84 330.48L365.05 325.1L395.12 325.1L391.33 330.48L391.33 365.62C391.33 369.06 395.36 372.49 398.13 373.74L362.04 373.74Z" />
			<path id="Layer" class="shp4" d="M372.9 325.11L387.27 325.11L387.27 373.74L372.9 373.74L372.9 325.11Z" />
			<path id="Layer" class="shp2" d="M353.35 338.68L359.08 338.68L359.08 365.07L353.35 365.07L353.35 338.68ZM402.55 338.68L408.28 338.68L408.28 365.07L402.55 365.07L402.55 338.68ZM348.45 294.17L355.36 294.17L355.36 321.22L348.45 321.22L348.45 294.17ZM348.45 289.08L355.32 289.08L355.32 294.1L348.45 294.1L348.45 289.08Z" />
			<path id="Layer" class="shp8" d="M405.3 299.99L415.16 299.99L415.16 320.88L405.3 320.88L405.3 299.99Z" />
			<path id="Layer" fill-rule="evenodd" class="shp4" d="M355.25 321.02L355.25 274.71C357.22 274.71 357.53 281.5 362.05 281.5C364.4 281.5 364.15 278.69 362.83 276.4C361.66 274.37 360.21 271.57 362.18 266.35C363.53 270.34 367.16 271.61 366.49 269.11C365.34 264.8 362.02 264.1 364.51 257.42C365.37 262.99 368.95 262.75 368.08 259.51C367.1 255.86 365.08 254.37 367.57 249.22C368.97 255.06 370.86 254.72 370.86 251.1C370.86 245.74 370.65 239.97 377.58 237.82C377.58 237.82 377.98 232.91 380.48 232.91C382.98 232.91 383.38 237.82 383.38 237.82C390.31 239.97 390.1 245.74 390.1 251.1C390.1 254.72 391.99 255.07 393.39 249.23C395.88 254.37 393.86 255.86 392.88 259.51C392.01 262.75 395.59 262.99 396.45 257.42C398.94 264.1 395.62 264.81 394.47 269.11C393.8 271.61 397.43 270.34 398.78 266.35C400.75 271.57 399.3 274.37 398.13 276.4C396.8 278.69 396.55 281.5 398.91 281.5C403.43 281.5 403.74 274.71 405.71 274.71L405.71 321.02L355.25 321.02ZM344.43 286.04C345.64 285.11 347 285.22 348.44 285.95L348.44 321.37L344.43 321.37L344.43 286.04Z" />
			<path id="Layer" class="shp4" d="M344.55 308.9C349.53 311.45 354.46 314.4 355.71 321.37L344.55 321.37L344.55 308.9ZM416.88 298.27L416.88 321.38L413.62 321.38L413.62 298.33C414.47 297.72 415.86 297.79 416.88 298.27Z" />
			<path id="Layer" class="shp4" d="M416.88 321.2L405.72 321.2C406.97 314.22 411.9 311.27 416.88 308.73L416.88 321.2Z" />
			<path id="Layer" class="shp4" d="M376.71 254.89L373.81 252.45L373.81 249.32C374.87 249.43 375.45 249.72 376.23 250.75C376.9 248.68 378.36 247.13 380.33 246.13C382.3 247.13 383.76 248.75 384.43 250.82C385.22 249.79 385.8 249.43 386.86 249.32L386.86 252.45L383.96 254.89L376.71 254.89Z" />
			<path id="Layer" class="shp4" d="M375.16 262.71L373.8 259.79L373.8 255.73C374.87 255.84 375.45 256.13 376.23 257.17C376.9 255.07 378.36 253.51 380.33 252.49C382.3 253.51 383.76 255.15 384.43 257.25C385.21 256.2 385.79 255.83 386.86 255.73L386.86 259.79L385.51 262.71L375.16 262.71Z" />
			<path id="Layer" class="shp4" d="M374.95 273.32L370.64 268.06L370.64 262.87C372.22 263.05 373.08 263.55 374.24 265.31C375.24 261.76 377.41 261.11 380.33 259.38C383.26 261.11 385.43 261.89 386.42 265.44C387.59 263.68 388.45 263.05 390.03 262.87L390.03 268.06L385.72 273.32L374.95 273.32Z" />
			<path id="Layer" class="shp4" d="M373.69 283.73C373.69 283.73 369 279.35 368.37 276.94L368.37 271.4C370.32 271.63 372.16 272.13 373.6 274.41C374.82 269.82 376.73 268.54 380.34 266.31C383.94 268.54 385.85 269.82 387.08 274.41C388.51 272.13 390.36 271.63 392.3 271.4L392.3 276.95C392 279.35 386.98 283.74 386.98 283.74L373.69 283.73Z" />
			<path id="Layer" class="shp4" d="M371.55 302.97C371.55 302.97 365 295.35 364.51 292.38L364.51 283.73C367.09 284.09 369.52 285.86 371.43 289.41C373.04 282.25 375.57 277.26 380.34 273.79C385.11 277.26 387.63 282.25 389.25 289.41C391.15 285.86 393.59 284.09 396.16 283.73L396.16 292.38C396 295.35 389.12 302.97 389.12 302.97L371.55 302.97Z" />
			<path id="Layer" class="shp4" d="M371.55 314.34C371.55 314.34 366 308.35 364.51 305.76L364.51 297.11C367.09 297.46 369.52 299.23 371.43 302.79C373.04 295.63 375.57 291.53 380.34 288.06C385.11 291.53 387.63 295.63 389.25 302.79C391.15 299.24 393.59 297.47 396.16 297.11L396.16 305.76C395 308.36 389.12 314.34 389.12 314.34L371.55 314.34Z" />
			<path id="Layer" class="shp4" d="M368.57 320.95C370.29 313.48 371.76 307.94 380.03 302.33C388.3 307.94 389.77 313.48 391.49 320.95L368.57 320.95Z" />
			<path id="Layer" class="shp4" d="M364.5 325.11L364.5 314.29C368.26 315.76 371.65 317.94 372.9 320.36C374.3 314.36 376.55 311.71 379.9 308.08C383.26 311.71 385.95 314.36 387.35 320.36C388.6 317.94 391.99 315.76 395.75 314.29L395.75 325.11L364.5 325.11Z" />
		</g>
		<g id="a">
			<path id="Layer" class="shp4" d="M648.76 365.22L648.76 328.48L655.6 298.38L661.58 295.14L661.58 323.93C658.92 324.67 655.39 328.35 654.32 332.52L654.32 365.22L648.76 365.22Z" />
			<path id="Layer" class="shp4" d="M648.76 365.1L648.76 328.48L655.6 298.38C655.6 298.38 657.56 293.15 661.58 293.15L661.58 323.94C658.92 324.67 655.39 328.36 654.32 332.52L654.32 365.35L648.76 365.1Z" />
			<path id="Layer" class="shp4" d="M581.21 373.74C583.98 372.49 586.75 369.06 586.75 365.62L586.75 324.75L584.03 321.38L653.67 321.38L651.77 324.75L651.77 365.62C651.77 369.06 655.8 372.49 658.57 373.74L581.21 373.74Z" />
			<path id="Layer" class="shp4" d="M595.27 373.74C598.04 372.49 602.07 369.06 602.07 365.62L602.07 326.75L596.28 321.37L643.62 321.38L637.82 326.75L637.82 365.62C637.82 369.06 641.86 372.49 644.62 373.74L595.27 373.74Z" />
			<path id="Layer" class="shp4" d="M601.91 373.74C604.68 372.49 608.71 369.06 608.71 365.62L608.71 330.48L604.92 325.1L634.99 325.1L631.2 330.48L631.2 365.62C631.2 369.06 635.23 372.49 638 373.74L601.91 373.74Z" />
			<path id="Layer" class="shp4" d="M627.14 373.74L612.77 373.74L612.77 325.11L627.14 325.11L627.14 373.74Z" />
			<path id="Layer" class="shp2" d="M646.69 365.07L640.95 365.07L640.95 338.68L646.69 338.68L646.69 365.07ZM597.49 365.07L591.75 365.07L591.75 338.68L597.49 338.68L597.49 365.07ZM651.59 321.22L644.68 321.22L644.68 294.17L651.59 294.17L651.59 321.22ZM651.59 294.1L644.72 294.1L644.72 289.08L651.59 289.08L651.59 294.1Z" />
			<path id="Layer" class="shp8" d="M594.74 320.88L584.88 320.88L584.88 299.99L594.74 299.99L594.74 320.88Z" />
			<path id="Layer" fill-rule="evenodd" class="shp4" d="M594.33 321.02L594.33 274.71C596.3 274.71 596.61 281.5 601.13 281.5C603.48 281.5 603.23 278.69 601.91 276.4C600.74 274.37 599.29 271.57 601.26 266.35C602.61 270.34 606.24 271.61 605.57 269.11C604.42 264.81 601.1 264.1 603.59 257.42C604.45 262.99 608.03 262.75 607.16 259.51C606.18 255.86 604.16 254.37 606.65 249.23C608.05 255.07 609.93 254.72 609.93 251.1C609.93 245.74 609.73 239.97 616.66 237.82C616.66 237.82 617.06 232.91 619.56 232.91C622.06 232.91 622.46 237.82 622.46 237.82C629.39 239.97 629.18 245.74 629.18 251.1C629.18 254.72 631.07 255.06 632.47 249.22C634.96 254.37 632.94 255.86 631.96 259.51C631.09 262.75 634.66 262.99 635.53 257.42C638.02 264.1 634.7 264.8 633.55 269.11C632.88 271.61 636.51 270.34 637.86 266.35C639.83 271.57 638.38 274.37 637.21 276.4C635.88 278.69 635.64 281.5 637.99 281.5C642.51 281.5 642.82 274.71 644.79 274.71L644.79 321.02L594.33 321.02ZM655.61 321.37L651.6 321.37L651.6 285.95C653.04 285.22 654.4 285.11 655.61 286.04L655.61 321.37Z" />
			<path id="Layer" class="shp4" d="M655.49 321.37L644.33 321.37C645.57 314.4 650.51 311.45 655.49 308.9L655.49 321.37ZM586.42 298.33L586.42 321.38L583.16 321.38L583.16 298.27C584.18 297.79 585.57 297.72 586.42 298.33Z" />
			<path id="Layer" class="shp4" d="M583.16 308.73C588.13 311.27 593.07 314.22 594.32 321.2L583.16 321.2L583.16 308.73Z" />
			<path id="Layer" class="shp4" d="M616.08 254.89L613.18 252.45L613.18 249.32C614.24 249.43 614.82 249.79 615.61 250.82C616.27 248.75 617.74 247.13 619.71 246.13C621.67 247.13 623.14 248.68 623.81 250.75C624.59 249.72 625.17 249.43 626.23 249.32L626.23 252.45L623.33 254.89L616.08 254.89Z" />
			<path id="Layer" class="shp4" d="M614.53 262.71L613.18 259.79L613.18 255.73C614.24 255.83 614.82 256.2 615.61 257.25C616.28 255.15 617.74 253.51 619.71 252.49C621.68 253.51 623.14 255.07 623.81 257.17C624.59 256.13 625.17 255.84 626.23 255.73L626.23 259.79L624.88 262.71L614.53 262.71Z" />
			<path id="Layer" class="shp4" d="M614.32 273.32L610.01 268.06L610.01 262.87C611.59 263.05 612.45 263.68 613.61 265.44C614.61 261.89 616.78 261.11 619.7 259.38C622.62 261.11 624.8 261.76 625.79 265.31C626.96 263.55 627.82 263.05 629.39 262.87L629.39 268.06L625.08 273.32L614.32 273.32Z" />
			<path id="Layer" class="shp4" d="M613.06 283.74C613.06 283.74 608.04 279.35 607.74 276.95L607.74 271.4C609.68 271.63 611.52 272.13 612.96 274.41C614.19 269.82 616.1 268.54 619.7 266.31C623.31 268.54 625.22 269.82 626.44 274.41C627.88 272.13 629.72 271.63 631.67 271.4L631.67 276.94C631.04 279.35 626.35 283.73 626.35 283.73L613.06 283.74Z" />
			<path id="Layer" class="shp4" d="M610.92 302.97C610.92 302.97 604.04 295.35 603.88 292.38L603.88 283.73C606.45 284.09 608.89 285.86 610.79 289.41C612.41 282.25 614.93 277.26 619.7 273.79C624.47 277.26 627 282.25 628.61 289.41C630.52 285.86 632.95 284.09 635.53 283.73L635.53 292.38C635.03 295.35 628.49 302.97 628.49 302.97L610.92 302.97Z" />
			<path id="Layer" class="shp4" d="M610.92 314.34C610.92 314.34 605.03 308.36 603.88 305.76L603.88 297.11C606.45 297.47 608.89 299.24 610.79 302.79C612.41 295.63 614.93 291.53 619.7 288.06C624.47 291.53 627 295.63 628.61 302.79C630.52 299.23 632.95 297.46 635.53 297.11L635.53 305.76C634.03 308.35 628.49 314.34 628.49 314.34L610.92 314.34Z" />
			<path id="Layer" class="shp4" d="M608.55 320.95C610.26 313.48 611.74 307.94 620.01 302.33C628.28 307.94 629.75 313.48 631.47 320.95L608.55 320.95Z" />
			<path id="Layer" class="shp4" d="M604.29 325.11L604.29 314.29C608.04 315.76 611.44 317.94 612.69 320.36C614.09 314.36 616.78 311.71 620.13 308.08C623.49 311.71 625.73 314.36 627.13 320.36C628.39 317.94 631.78 315.76 635.53 314.29L635.53 325.11L604.29 325.11Z" />
		</g>
		<g id="Layer">
			<path id="Layer" class="shp4" d="M669.51 373.3L669.51 383.18L330.49 383.18L330.49 373.3L669.51 373.3ZM675.64 383.27L675.64 396.15L324.35 396.15L324.35 383.27L675.64 383.27ZM685.92 396.15L685.92 413.15L314.08 413.15L314.08 396.15L324.35 396.25L675.64 396.15L685.92 396.15ZM696.26 413.26L696.27 433.27L303.74 433.27L303.74 413.26L696.26 413.26ZM706.61 433.27L706.61 453.29L293.39 453.29L293.39 433.27L303.74 433.27L303.74 433.3L696.27 433.3L696.27 433.27L706.61 433.27Z" />
			<path id="Layer" class="shp9" d="M367.28 373.35L392.89 373.35L392.89 453.25L367.28 453.25L367.28 373.35Z" />
			<path id="Layer" class="shp10" d="M372.95 373.35L387.21 373.35L387.21 453.25L372.95 453.25L372.95 373.35Z" />
			<path id="Layer" class="shp9" d="M486.76 373.35L512.36 373.35L512.36 453.25L486.76 453.25L486.76 373.35Z" />
			<path id="Layer" class="shp10" d="M492.6 373.35L506.86 373.35L506.86 453.25L492.6 453.25L492.6 373.35Z" />
			<path id="Layer" class="shp9" d="M606.93 373.35L632.54 373.35L632.54 453.25L606.93 453.25L606.93 373.35Z" />
			<path id="Layer" class="shp10" d="M612.6 373.35L626.86 373.35L626.86 453.25L612.6 453.25L612.6 373.35Z" />
		</g>
		<g id="Layer">
			<path id="Layer" class="shp7" d="M345.72 365.22L654.64 365.22M372.69 443.21L387.48 443.21M372.69 433.21L387.48 433.21M372.69 423.21L387.48 423.21M372.69 413.21L387.48 413.21M372.69 403.21L387.48 403.21M372.69 393.21L387.48 393.21M372.69 383.21L387.48 383.21M492.66 443.22L506.43 443.22M492.66 433.22L506.43 433.22M492.66 423.21L506.43 423.21M492.66 413.21L506.43 413.21M492.66 403.2L506.43 403.2M492.66 393.2L506.43 393.2M492.66 383.19L506.43 383.19M612.34 443.21L627.13 443.21M612.34 433.21L627.13 433.21M612.34 423.21L627.13 423.21M612.34 413.21L627.13 413.21M612.34 403.21L627.13 403.21M612.34 393.21L627.13 393.21M612.34 383.21L627.13 383.21" />
		</g>
	</g>
</svg>