<svg xmlns="http://www.w3.org/2000/svg" width="31" height="20" viewBox="0 0 31 20">
    <defs>
        <style>
            .prefix__cls-3{fill:#4b3f4e}.prefix__cls-4{fill:#5d5360}
        </style>
    </defs>
    <g id="prefix__Group_3561" data-name="Group 3561" transform="translate(-1032.355 -348.844)">
        <path id="prefix__Path_4556" fill="#ededed" d="M1062.355 348.844h-29l-.527.615v17.81a1 1 0 0 0 1 1h28.921l.606-.425v-18a1 1 0 0 0-1-1zm0 0" data-name="Path 4556"/>
        <path id="prefix__Path_4557" fill="#e1e1e6" d="M1033.355 364.844v-16a1 1 0 0 0-1 1v18a1 1 0 0 0 1 1h29a1 1 0 0 0 1-1h-27a3 3 0 0 1-3-3zm0 0" data-name="Path 4557"/>
        <path id="prefix__Path_4558" d="M1041.207 356.687a.5.5 0 0 1-.415-.779l1.673-2.49a.5.5 0 1 1 .83.557l-1.673 2.491a.5.5 0 0 1-.415.221zm0 0" class="prefix__cls-3" data-name="Path 4558"/>
        <path id="prefix__Path_4559" d="M1039.546 355.572a.491.491 0 0 1-.278-.085.5.5 0 0 1-.136-.694l1.672-2.491a.5.5 0 1 1 .83.558l-1.672 2.491a.5.5 0 0 1-.416.221zm0 0" class="prefix__cls-4" data-name="Path 4559"/>
        <path id="prefix__Path_4560" d="M1054.49 365.606a.491.491 0 0 1-.278-.085.5.5 0 0 1-.137-.694l1.673-2.49a.5.5 0 1 1 .83.558l-1.672 2.49a.5.5 0 0 1-.416.221zm0 0" class="prefix__cls-4" data-name="Path 4560"/>
        <path id="prefix__Path_4561" d="M1052.829 364.491a.493.493 0 0 1-.278-.085.5.5 0 0 1-.136-.694l1.672-2.49a.5.5 0 1 1 .83.558l-1.672 2.49a.5.5 0 0 1-.416.221zm0 0" class="prefix__cls-3" data-name="Path 4561"/>
        <path id="prefix__Path_4562" d="M1054.5 356.687a.5.5 0 0 1-.416-.221l-1.672-2.491a.5.5 0 1 1 .83-.557l1.672 2.49a.5.5 0 0 1-.414.779zm0 0" class="prefix__cls-3" data-name="Path 4562"/>
        <path id="prefix__Path_4563" d="M1056.163 355.572a.5.5 0 0 1-.415-.221l-1.673-2.491a.5.5 0 0 1 .831-.558l1.672 2.491a.5.5 0 0 1-.415.779zm0 0" class="prefix__cls-4" data-name="Path 4563"/>
        <path id="prefix__Path_4564" d="M1041.22 365.606a.5.5 0 0 1-.416-.221l-1.672-2.49a.5.5 0 1 1 .83-.558l1.672 2.49a.5.5 0 0 1-.136.694.494.494 0 0 1-.278.085zm0 0" class="prefix__cls-4" data-name="Path 4564"/>
        <path id="prefix__Path_4565" d="M1042.88 364.491a.5.5 0 0 1-.415-.221l-1.673-2.49a.5.5 0 1 1 .83-.558l1.673 2.49a.5.5 0 0 1-.415.779zm0 0" class="prefix__cls-3" data-name="Path 4565"/>
        <path id="prefix__Path_4566" fill="#5055a0" d="M1051.629 357.875c-1.148-.762-3.231-1.452-4-.3l-3.934-1.5a5 5 0 1 0 8.32 5.545c.767-1.145.765-2.974-.385-3.74zm0 0" data-name="Path 4566"/>
        <path id="prefix__Path_4567" fill="#e5646e" d="M1043.695 356.071a2.5 2.5 0 1 0 4.157 2.772 2.5 2.5 0 1 1 4.157 2.772h.005a5 5 0 1 0-8.32-5.545zm0 0" data-name="Path 4567"/>
    </g>
</svg>
