<svg xmlns="http://www.w3.org/2000/svg" width="31.089" height="20" viewBox="0 0 31.089 20">
    <g id="prefix__Group_3552" data-name="Group 3552" transform="translate(-1031.867 -108.844)">
        <g id="prefix__Group_3551" data-name="Group 3551">
            <path id="prefix__Path_4496" fill="#ff4b55" d="M1031.867 110.094v17.5a1.25 1.25 0 0 0 1.25 1.25h28.589a1.25 1.25 0 0 0 1.25-1.25v-17.5a1.25 1.25 0 0 0-1.25-1.25h-28.589a1.249 1.249 0 0 0-1.25 1.25z" data-name="Path 4496"/>
            <path id="prefix__Path_4497" fill="#ffe15a" d="M1047.376 112.881l1.408 4.222 4.448.035a.256.256 0 0 1 .149.465l-3.578 2.642 1.342 4.24a.258.258 0 0 1-.4.286l-3.613-2.582-3.62 2.588a.26.26 0 0 1-.4-.286l1.341-4.24-3.577-2.642a.257.257 0 0 1 .149-.465l4.448-.036 1.407-4.221a.26.26 0 0 1 .496-.006z" data-name="Path 4497"/>
        </g>
        <path id="prefix__Path_4498" fill="#ef4858" d="M1032.867 124.844v-16a1 1 0 0 0-1 1v18a1 1 0 0 0 1 1h29a1 1 0 0 0 1-1h-27a3 3 0 0 1-3-3zm0 0" data-name="Path 4498"/>
    </g>
</svg>
